<svg xmlns="http://www.w3.org/2000/svg" viewBox="0 0 20.33 23.7"><defs><style>.cls-1{fill:#0e283c;}</style></defs><title>carousel</title><g id="Layer_2" data-name="Layer 2"><g id="Layer_1-2" data-name="Layer 1"><path class="cls-1" d="M16,11.28h-4a2.35,2.35,0,0,0-.39-1l2.58-2.86a.32.32,0,0,0,0-.42.25.25,0,0,0-.38,0L11.31,9.81a1.89,1.89,0,0,0-.94-.43V5.11a.27.27,0,1,0-.54,0V9.37a1.89,1.89,0,0,0-.94.43L6.4,7A.25.25,0,0,0,6,7a.32.32,0,0,0,0,.42l2.49,2.77a2.34,2.34,0,0,0-.39,1H4.25a.3.3,0,0,0,0,.6H8.12a2.34,2.34,0,0,0,.39,1L6.18,15.51a.32.32,0,0,0,0,.42.25.25,0,0,0,.38,0l2.33-2.59a1.89,1.89,0,0,0,.94.43V17.9a.27.27,0,1,0,.54,0V13.78a1.89,1.89,0,0,0,.94-.43L13.7,16a.25.25,0,0,0,.38,0,.32.32,0,0,0,0-.42l-2.39-2.65a2.35,2.35,0,0,0,.39-1h4a.3.3,0,0,0,0-.6ZM10.1,13.2h0a1.55,1.55,0,0,1-1.47-1.63A1.55,1.55,0,0,1,10.1,9.95h0a1.55,1.55,0,0,1,1.46,1.63A1.55,1.55,0,0,1,10.1,13.2Z"/><path class="cls-1" d="M20.33,10.19a.8.8,0,0,0-.76-.84h-1a10.19,10.19,0,0,0-1-2.71,1.29,1.29,0,0,0,.28-.8V5a.31.31,0,0,0,0,0,.29.29,0,0,0,0,0V3.59a.8.8,0,0,0-.76-.84h-2a.75.75,0,0,0-.68.47,8.09,8.09,0,0,0-2.61-1.1V.84A.8.8,0,0,0,11.08,0h-2a.8.8,0,0,0-.76.84V2.12a8.08,8.08,0,0,0-2.51,1,.74.74,0,0,0-.65-.41h-2a.8.8,0,0,0-.76.84V5a.29.29,0,0,0,0,0,.29.29,0,0,0,0,0v.8a1.3,1.3,0,0,0,.21.71,10.17,10.17,0,0,0-1,2.8H.76a.8.8,0,0,0-.76.84v1.38a.32.32,0,0,0,0,0,.3.3,0,0,0,0,0v.8a1.16,1.16,0,0,0,1.1,1.22h.52a10.21,10.21,0,0,0,1,2.73.9.9,0,0,0-.09.4v1.38a.29.29,0,0,0,0,0,.3.3,0,0,0,0,0V19a1.16,1.16,0,0,0,1.1,1.22H4.86a1,1,0,0,0,.8-.39,8.4,8.4,0,0,0,.84.49l-1.1,2.93a.31.31,0,0,0,.14.39l.1,0a.27.27,0,0,0,.25-.18L7,20.59A8,8,0,0,0,8.36,21v.73A1.16,1.16,0,0,0,9.46,23h1.29a1.16,1.16,0,0,0,1.1-1.22V21a8,8,0,0,0,1.37-.44l1.1,2.93a.27.27,0,0,0,.25.18l.1,0a.31.31,0,0,0,.14-.39l-1.1-2.93a8.42,8.42,0,0,0,.92-.55,1.05,1.05,0,0,0,.84.45h1.29A1.16,1.16,0,0,0,17.85,19v-.8a.09.09,0,0,1,0-.06V16.79a.89.89,0,0,0-.16-.51,10.23,10.23,0,0,0,.9-2.62h.64a1.16,1.16,0,0,0,1.1-1.22v-.8a.31.31,0,0,0,0,0,.3.3,0,0,0,0,0Zm-.54,0v1.15H17.38V10.19a.23.23,0,0,1,.22-.24h2A.23.23,0,0,1,19.79,10.19ZM14.9,5.34h2.41v.51a.59.59,0,0,1-.56.62H15.46a.59.59,0,0,1-.56-.62Zm.22-2h2a.23.23,0,0,1,.22.24V4.74H14.9V3.59A.23.23,0,0,1,15.12,3.35ZM9.12.6h2a.23.23,0,0,1,.22.24V2H8.9V.84A.23.23,0,0,1,9.12.6Zm-.22,2H11.3v.51a.59.59,0,0,1-.56.62H9.46a.59.59,0,0,1-.56-.62Zm-5.66.76h2a.23.23,0,0,1,.22.24V4.74H3V3.59A.23.23,0,0,1,3.23,3.35ZM3,5.84V5.34H5.42v.51a.59.59,0,0,1-.56.62H3.57A.59.59,0,0,1,3,5.84ZM.76,9.95h2a.23.23,0,0,1,.22.24v1.15H.54V10.19A.23.23,0,0,1,.76,9.95Zm-.22,2.5v-.51H2.94v.51a.59.59,0,0,1-.56.62H1.1A.59.59,0,0,1,.54,12.44Zm4.88,5.5H3V16.79a.23.23,0,0,1,.22-.24h2a.23.23,0,0,1,.22.24Zm-.56,1.72H3.57A.59.59,0,0,1,3,19v-.51H5.42V19A.59.59,0,0,1,4.86,19.67Zm6.44,1H8.9V19.5a.23.23,0,0,1,.22-.24h2a.23.23,0,0,1,.22.24Zm0,1.1a.59.59,0,0,1-.56.62H9.46a.59.59,0,0,1-.56-.62v-.51H11.3Zm5.79-5.2a.23.23,0,0,1,.22.24v1.15H14.9V16.79a.23.23,0,0,1,.22-.24Zm.22,2.5a.59.59,0,0,1-.56.62H15.46A.59.59,0,0,1,14.9,19v-.51h2.41ZM17.22,16h-2.1a.8.8,0,0,0-.76.84v1.38a.09.09,0,0,1,0,.06V19a1.34,1.34,0,0,0,0,.23,7.92,7.92,0,0,1-.89.54l-1.9-5a.26.26,0,0,0-.35-.16.31.31,0,0,0-.14.39L13,20a7.46,7.46,0,0,1-1.16.38V19.5a.8.8,0,0,0-.76-.84h-2a.8.8,0,0,0-.76.84v.92A7.48,7.48,0,0,1,7.2,20l1.9-5A.31.31,0,0,0,9,14.61a.26.26,0,0,0-.35.16l-1.9,5a7.89,7.89,0,0,1-.79-.46A1.32,1.32,0,0,0,6,19v-.8a.29.29,0,0,0,0,0,.3.3,0,0,0,0,0V16.79A.8.8,0,0,0,5.2,16h-2A.68.68,0,0,0,3,16a9.57,9.57,0,0,1-.82-2.34h.21a1.16,1.16,0,0,0,1.1-1.22v-.8a.29.29,0,0,0,0,0,.29.29,0,0,0,0,0V10.19a.8.8,0,0,0-.76-.84H2.2a9.53,9.53,0,0,1,.9-2.42,1,1,0,0,0,.47.12H4.86A1.16,1.16,0,0,0,6,5.84V5A.29.29,0,0,0,6,5,.29.29,0,0,0,6,5V3.78a7.61,7.61,0,0,1,2.4-1v.36a1.16,1.16,0,0,0,1.1,1.22h1.29a1.16,1.16,0,0,0,1.1-1.22V2.73a7.62,7.62,0,0,1,2.53,1.13V5a.31.31,0,0,0,0,0,.32.32,0,0,0,0,0v.8a1.16,1.16,0,0,0,1.1,1.22h1.29A1,1,0,0,0,17.13,7,9.54,9.54,0,0,1,18,9.35h-.4a.8.8,0,0,0-.76.84v1.38a.31.31,0,0,0,0,0,.29.29,0,0,0,0,0v.8a1.16,1.16,0,0,0,1.1,1.22H18A9.58,9.58,0,0,1,17.22,16Zm2.56-3.52a.59.59,0,0,1-.56.62H17.94a.59.59,0,0,1-.56-.62v-.51h2.41Z"/><path class="cls-1" d="M10.1,10.45a1.13,1.13,0,0,0,0,2.25,1.13,1.13,0,0,0,0-2.25Zm0,1.65a.53.53,0,1,1,.47-.53A.5.5,0,0,1,10.1,12.1Z"/></g></g></svg>