<svg xmlns="http://www.w3.org/2000/svg" viewBox="0 0 23.66 23.17"><defs><style>.cls-1{fill:#fff;}.cls-2,.cls-3,.cls-4{fill:none;stroke:#fff;stroke-miterlimit:10;stroke-width:0.5px;}.cls-3{stroke-dasharray:1.98 1.98;}.cls-4{stroke-dasharray:1.56 1.56;}</style></defs><title>distances</title><g id="Layer_2" data-name="Layer 2"><g id="Layer_1-2" data-name="Layer 1"><path class="cls-1" d="M4.93,9.06A4.74,4.74,0,0,0,.66,16.21c.37.62.74,1.25,1.09,1.89l2.66,4.83,3-4.62c.4-.6.81-1.2,1.23-1.79A4.74,4.74,0,0,0,4.93,9.06Zm-.28,7.66a3,3,0,1,1,3.14-2.89A3,3,0,0,1,4.64,16.72Z"/><path class="cls-1" d="M16.44,0a3.15,3.15,0,0,0-2.83,4.74c.25.41.49.83.72,1.25L16.1,9.21l2-3.06c.26-.4.54-.79.81-1.19a3.15,3.15,0,0,0-2.47-5Zm-.19,5.08a2,2,0,1,1,2.08-1.92A2,2,0,0,1,16.25,5.09Z"/><path class="cls-2" d="M5.16,22.92h1"/><path class="cls-3" d="M8.14,22.86c5.92-.2,18.28-1.09,14.61-4.91S9.92,14.3,7.16,11.86"/><path class="cls-2" d="M6.56,11.08a1.94,1.94,0,0,1-.17-1l1-.09"/><line class="cls-4" x1="8.94" y1="9.88" x2="14.39" y2="9.41"/><line class="cls-2" x1="15.17" y1="9.34" x2="16.17" y2="9.25"/></g></g></svg>