<?xml version="1.0" encoding="UTF-8"?>
<svg width="31px" height="34px" viewBox="0 0 31 34" version="1.1" xmlns="http://www.w3.org/2000/svg" xmlns:xlink="http://www.w3.org/1999/xlink">
    <!-- Generator: Sketch 53.1 (72631) - https://sketchapp.com -->
    <title>enquires</title>
    <desc>Created with Sketch.</desc>
    <g id="Page-1" stroke="none" stroke-width="1" fill="none" fill-rule="evenodd">
        <g id="enquires">
            <polygon id="Path" fill="#FFFFFF" fill-rule="nonzero" points="13.9438686 24.154526 13.3561314 23.345474 21.1061314 17.715474 21.6938686 18.524526"></polygon>
            <polygon id="Path" fill="#FFFFFF" fill-rule="nonzero" points="15.8242099 26.7442778 15.2357901 25.9357222 22.9857901 20.2957222 23.5742099 21.1042778"></polygon>
            <polygon id="Path" fill="#FFFFFF" fill-rule="nonzero" points="15.98 14.91 15.19 16.3 14.32 14.91 14.32 1.96 15.98 1.96"></polygon>
            <rect id="Rectangle" fill="#FFFFFF" fill-rule="nonzero" x="14.32" y="0" width="1.66" height="1.12"></rect>
            <polygon id="Path" points="15.22 13.17 13.71 10.74 13.71 4.72 1.73 13.49 15.01 31.64 28.58 21.7 16.6 5.32 16.6 10.74"></polygon>
            <polygon id="Path" fill="#FFFFFF" fill-rule="nonzero" points="14.96 31.93 28.88 21.75 16.6 4.96 16.6 5.32 28.58 21.7 15.01 31.64 1.73 13.49 13.71 4.72 13.71 4.45 1.43 13.44"></polygon>
            <polygon id="Path" fill="#FFFFFF" fill-rule="nonzero" points="16.6 3.23 16.6 3.59 30.01 21.92 14.78 33.06 0.3 13.27 13.71 3.45 13.71 3.19 0 13.22 14.74 33.36 30.31 21.97"></polygon>
            <polygon id="Path" fill="#FFFFFF" fill-rule="nonzero" points="28.88 21.75 14.96 31.93 1.43 13.44 13.71 4.45 13.71 3.45 0.3 13.27 14.78 33.06 30.01 21.92 16.6 3.59 16.6 4.96"></polygon>
        </g>
    </g>
</svg>