<svg xmlns="http://www.w3.org/2000/svg" xmlns:xlink="http://www.w3.org/1999/xlink" width="72" height="57" viewBox="0 0 72 57"><defs><path id="uqpka" d="M1114.752 1497.156c-.331 0-.66-.15-.876-.438a1.125 1.125 0 0 1 .207-1.564l35.916-27.818 34.352 27.834c.475.384.55 1.086.17 1.568-.38.48-1.072.56-1.547.173l-33.006-26.742-34.548 26.758c-.2.154-.435.23-.668.23z"/><path id="uqpkb" d="M1174.92 1523.92h-18.007v-18.104h-14.119v17.842h-17.746v-27.88c0-.616.494-1.115 1.102-1.115.607 0 1.101.499 1.101 1.115v25.648h13.34v-17.842h18.524v18.105h13.601v-25.386c0-.616.493-1.115 1.101-1.115s1.102.499 1.102 1.115z"/></defs><g><g transform="translate(-1113 -1467)"><use fill="#b89d7f" xlink:href="#uqpka"/></g><g transform="translate(-1113 -1467)"><use fill="#b89d7f" xlink:href="#uqpkb"/></g></g></svg>