<svg xmlns="http://www.w3.org/2000/svg" viewBox="0 0 14.26 13.83"><defs><style>.cls-1{fill:#fff;}</style></defs><title>figure</title><g id="Layer_2" data-name="Layer 2"><g id="Layer_1-2" data-name="Layer 1"><path class="cls-1" d="M7.81,1.07l0-.1a1.2,1.2,0,0,1,2.27,0,.13.13,0,0,0,.15.1c.37,0,.75,0,1.12,0a2.89,2.89,0,0,1,2.81,2.5,3.22,3.22,0,0,1-.6,2.53,2.67,2.67,0,0,1-1.92,1.08c-.46,0-.94,0-1.41,0a.14.14,0,0,0-.16.11,1.2,1.2,0,0,1-2.26,0,.15.15,0,0,0-.17-.12H6.47a.11.11,0,0,0-.12.09,1.19,1.19,0,0,1-1.14.81A1.2,1.2,0,0,1,4.06,7.3S4,7.22,4,7.22a11.93,11.93,0,0,0-1.25,0,2.24,2.24,0,0,0-2,1.85,2.6,2.6,0,0,0,.48,2.21,2.18,2.18,0,0,0,1.62.84c.38,0,.77,0,1.16,0,.08,0,.08-.05.09-.1a1.21,1.21,0,0,1,1.76-.64,1.14,1.14,0,0,1,.52.64.11.11,0,0,0,.13.09H7.71a.11.11,0,0,0,.13-.09,1.2,1.2,0,0,1,2.28,0,.12.12,0,0,0,.14.1h1.17a.12.12,0,0,0,.14-.1,1.38,1.38,0,1,1,0,.81.13.13,0,0,0-.16-.11H10.24a.11.11,0,0,0-.13.09,1.21,1.21,0,0,1-2.28,0,.11.11,0,0,0-.12-.09H6.46a.1.1,0,0,0-.12.08,1.21,1.21,0,0,1-2.28,0,.1.1,0,0,0-.12-.08c-.36,0-.72,0-1.08,0A2.87,2.87,0,0,1,.12,10.34a3.19,3.19,0,0,1,.66-2.7,2.68,2.68,0,0,1,1.87-1c.42,0,.85,0,1.27,0,.08,0,.12,0,.15-.1a1.2,1.2,0,0,1,2.27,0,.11.11,0,0,0,.13.1H7.71a.11.11,0,0,0,.12-.09,1.2,1.2,0,0,1,2.28,0,.11.11,0,0,0,.13.09c.38,0,.76,0,1.14,0a2.28,2.28,0,0,0,2.19-1.91,2.59,2.59,0,0,0-.46-2.14,2.21,2.21,0,0,0-1.69-.88c-.4,0-.81,0-1.21,0-.06,0-.07,0-.09.07a1.2,1.2,0,0,1-2.3,0,.1.1,0,0,0-.11-.08H6.47a.11.11,0,0,0-.12.09,1.2,1.2,0,0,1-2.29,0,.11.11,0,0,0-.12-.09H2.84c-.09,0-.12,0-.15.11a1.37,1.37,0,1,1,0-.81.13.13,0,0,0,.15.11H3.95A.1.1,0,0,0,4.07,1,1.2,1.2,0,0,1,6.35,1s0,.08.09.08ZM9.64,6.91A.66.66,0,1,0,9,7.57.66.66,0,0,0,9.64,6.91ZM5.21,2a.66.66,0,1,0-.66-.65A.66.66,0,0,0,5.21,2Zm0,5.54a.66.66,0,1,0-.66-.66A.66.66,0,0,0,5.2,7.57Zm4.43,4.9a.66.66,0,1,0-.66.65A.66.66,0,0,0,9.64,12.47Zm-4.43.65a.66.66,0,1,0-.66-.66A.66.66,0,0,0,5.2,13.12ZM9.64,1.37A.66.66,0,1,0,9,2,.66.66,0,0,0,9.64,1.37Z"/></g></g></svg>