<svg xmlns="http://www.w3.org/2000/svg" viewBox="0 0 21.8 13.95"><defs><style>.cls-1{fill:#0e283c;stroke:#0e283c;stroke-miterlimit:10;stroke-width:0.25px;}</style></defs><title>hat</title><g id="Layer_2" data-name="Layer 2"><g id="Layer_1-2" data-name="Layer 1"><path class="cls-1" d="M.47,4.81,4.76,6.45v4.42a1.57,1.57,0,0,0,.44,1,8.6,8.6,0,0,0,5.7,1.91,8.6,8.6,0,0,0,5.7-1.92,1.57,1.57,0,0,0,.44-1V6.45L18.11,6a.24.24,0,0,0-.17-.44L11.29,8.15a1.31,1.31,0,0,1-.79,0L.74,4.41,10.51.66a1.31,1.31,0,0,1,.79,0l9.77,3.75-.91.35a.24.24,0,0,0,.17.44l1-.39c.3-.12.35-.3.35-.4s0-.29-.35-.4L11.46.22a1.76,1.76,0,0,0-1.12,0L.47,4c-.3.12-.35.3-.35.4S.17,4.69.47,4.81ZM10.9,8.69a1.62,1.62,0,0,0,.56-.09l5.11-2v4.23a1.11,1.11,0,0,1-.28.7,8.24,8.24,0,0,1-5.39,1.8,8.24,8.24,0,0,1-5.38-1.79,1.11,1.11,0,0,1-.28-.7V6.63l5.11,2A1.62,1.62,0,0,0,10.9,8.69Z"/><path class="cls-1" d="M18.13,9.08a1.21,1.21,0,1,0,1.45-1.19V5.59a.86.86,0,0,0-.71-.83L11.1,3.61a.24.24,0,0,0-.07.47L18.8,5.23a.39.39,0,0,1,.31.36v2.3A1.21,1.21,0,0,0,18.13,9.08Zm2,0a.74.74,0,1,1-.74-.74A.74.74,0,0,1,20.09,9.08Z"/><path class="cls-1" d="M17.92,13.09a.65.65,0,0,0,.51.23h1.84a.63.63,0,0,0,.63-.79l-.43-2a.24.24,0,0,0-.46.1l.43,2a.16.16,0,0,1-.17.21H18.43a.16.16,0,0,1-.17-.21l.43-2a.24.24,0,1,0-.46-.1l-.43,2A.65.65,0,0,0,17.92,13.09Z"/></g></g></svg>