<svg xmlns="http://www.w3.org/2000/svg" xmlns:xlink="http://www.w3.org/1999/xlink" width="71" height="61" viewBox="0 0 71 61"><defs><path id="ekw0a" d="M663.445 1525.844H600.02a3.462 3.462 0 0 1-3.458-3.458v-43.12a3.462 3.462 0 0 1 3.458-3.459h63.424a3.462 3.462 0 0 1 3.458 3.458v43.121a3.462 3.462 0 0 1-3.458 3.458zm-63.424-47.683c-.61 0-1.104.496-1.104 1.104v43.121c0 .61.495 1.106 1.104 1.106h63.424c.61 0 1.105-.496 1.105-1.105v-43.121c0-.609-.495-1.105-1.105-1.105z"/><path id="ekw0b" d="M634.303 1515.121h-5.14a3.2 3.2 0 0 1-3.196-3.195v-5.333h-5.333a3.2 3.2 0 0 1-3.196-3.196v-5.142a3.2 3.2 0 0 1 3.196-3.196h5.333v-5.333a3.2 3.2 0 0 1 3.196-3.195h5.14a3.198 3.198 0 0 1 3.196 3.195v5.333h5.333a3.2 3.2 0 0 1 3.196 3.196v5.142a3.2 3.2 0 0 1-3.196 3.196H637.5v5.333a3.198 3.198 0 0 1-3.196 3.195zm-13.67-17.709a.843.843 0 0 0-.842.843v5.142c0 .465.377.843.842.843h6.51c.65 0 1.177.526 1.177 1.176v6.51c0 .465.377.842.842.842h5.141a.843.843 0 0 0 .843-.842v-6.51c0-.65.527-1.176 1.176-1.176h6.51a.844.844 0 0 0 .843-.843v-5.142a.844.844 0 0 0-.843-.843h-6.51a1.177 1.177 0 0 1-1.176-1.176v-6.51a.843.843 0 0 0-.843-.84h-5.14a.842.842 0 0 0-.842.84v6.51c0 .65-.527 1.176-1.177 1.176z"/><path id="ekw0c" d="M642.04 1478.037c-.65 0-1.178-.527-1.178-1.177v-6.538c0-1.386-1.17-2.557-2.557-2.557h-13.144a2.56 2.56 0 0 0-2.558 2.557v6.538a1.176 1.176 0 1 1-2.353 0v-6.538a4.916 4.916 0 0 1 4.911-4.91h13.144a4.915 4.915 0 0 1 4.91 4.91v6.538c0 .65-.526 1.177-1.176 1.177z"/></defs><g><g transform="translate(-596 -1465)"><use fill="#b89d7f" xlink:href="#ekw0a"/></g><g transform="translate(-596 -1465)"><use fill="#b89d7f" xlink:href="#ekw0b"/></g><g transform="translate(-596 -1465)"><use fill="#b89d7f" xlink:href="#ekw0c"/></g></g></svg>