<svg xmlns="http://www.w3.org/2000/svg" viewBox="0 0 61.79 49.16"><defs><style>.cls-1{fill:#fff;}</style></defs><title>home</title><g id="Layer_2" data-name="Layer 2"><g id="Layer_1-2" data-name="Layer 1"><path class="cls-1" d="M1,25.91a1,1,0,0,1-.76-.38,1,1,0,0,1,.18-1.36L31.58,0,61.43,24.18a1,1,0,0,1,.15,1.36,1,1,0,0,1-1.35.15L31.55,2.46l-30,23.25a1,1,0,0,1-.58.2"/><path class="cls-1" d="M53.23,49.16H37.59V33.43H25.32v15.5H9.9V24.71a1,1,0,1,1,1.91,0V47H23.41V31.49H39.5V47.22H51.32V25.17a1,1,0,1,1,1.91,0Z"/></g></g></svg>