<svg xmlns="http://www.w3.org/2000/svg" xmlns:xlink="http://www.w3.org/1999/xlink" width="50" height="69" viewBox="0 0 50 69"><defs><path id="fijza" d="M116.359 1529.852h-2.434v-1.359a.822.822 0 0 0-.821-.82h-9.654a3.26 3.26 0 0 1-3.254-3.257 3.258 3.258 0 0 1 3.254-3.254h21.619a.822.822 0 1 0 0-1.643h-21.79a3.258 3.258 0 0 1-3.253-3.254 3.258 3.258 0 0 1 3.254-3.255h21.789a.822.822 0 0 0 .822-.822v-.198a.823.823 0 0 0-.822-.822h-21.62a3.258 3.258 0 0 1-3.253-3.253v-1.787a.545.545 0 0 0-.218-.445 24.411 24.411 0 0 1-10.133-21.003c.586-12.556 10.887-22.77 23.45-23.255 6.71-.278 13.078 2.16 17.91 6.81 4.835 4.651 7.497 10.908 7.497 17.615 0 8.197-4.082 15.81-10.92 20.36l-1.348-2.025a21.988 21.988 0 0 0 9.835-18.335c0-6.04-2.398-11.674-6.751-15.862-4.35-4.187-10.074-6.348-16.128-6.132-11.313.436-20.587 9.633-21.114 20.938a21.982 21.982 0 0 0 9.125 18.915 2.984 2.984 0 0 1 1.229 2.42v1.786c0 .452.368.82.82.82h21.619a3.26 3.26 0 0 1 3.256 3.255v.198a3.26 3.26 0 0 1-3.256 3.255h-21.79a.822.822 0 0 0 0 1.642h21.79a3.26 3.26 0 0 1 3.256 3.256 3.26 3.26 0 0 1-3.256 3.254h-21.62a.822.822 0 0 0 0 1.644h9.655a3.258 3.258 0 0 1 3.255 3.254z"/><path id="fijzb" d="M111.925 1505.06c-.2 0-.405-.032-.606-.1a1.898 1.898 0 0 1-1.282-2.122l1.998-12.092h-5.237c-.667 0-1.275-.34-1.625-.91a1.895 1.895 0 0 1-.078-1.86l9.805-19.411a1.902 1.902 0 0 1 2.295-.954 1.897 1.897 0 0 1 1.291 2.12l-2.022 12.46h5.25c.67 0 1.278.343 1.627.915.35.572.375 1.269.07 1.866l-9.794 19.049a1.898 1.898 0 0 1-1.692 1.039zm-4.273-16.747h5.001a1.908 1.908 0 0 1 1.883 2.22l-1.553 9.4 7.87-15.308h-5.006a1.907 1.907 0 0 1-1.884-2.215l1.578-9.718z"/></defs><g><g transform="translate(-89 -1461)"><use fill="#b89d7f" xlink:href="#fijza"/></g><g transform="translate(-89 -1461)"><use fill="#b89d7f" xlink:href="#fijzb"/></g></g></svg>