<svg xmlns="http://www.w3.org/2000/svg" viewBox="0 0 62.22 51.27"><defs><style>.cls-1{fill:none;stroke:#fff;stroke-miterlimit:10;stroke-width:2px;}</style></defs><title>jobs</title><g id="Layer_2" data-name="Layer 2"><g id="Layer_1-2" data-name="Layer 1"><path class="cls-1" d="M59.85,25.64V46.17a4.11,4.11,0,0,1-4.11,4.11H6.47a4.11,4.11,0,0,1-4.11-4.11V25.64"/><rect class="cls-1" x="16.06" y="28.37" width="6.84" height="6.84"/><rect class="cls-1" x="39.32" y="28.37" width="6.84" height="6.84"/><path class="cls-1" d="M39.32,7.84V3.74A2.74,2.74,0,0,0,36.59,1H24.27a2.74,2.74,0,0,0-2.74,2.74V7.84"/><line class="cls-1" x1="39.32" y1="29.74" x2="22.9" y2="29.74"/><path class="cls-1" d="M16.06,29.74H13.32C8.75,29.74,1,27.26,1,22.9V10.58A2.74,2.74,0,0,1,3.74,7.84H58.49a2.74,2.74,0,0,1,2.74,2.74V22.9c0,4.36-7.75,6.84-12.32,6.84H46.17"/></g></g></svg>