<svg xmlns="http://www.w3.org/2000/svg" viewBox="0 0 64.44 71.94"><defs><style>.cls-1{fill:#fff;}</style></defs><title>keys</title><g id="Layer_2" data-name="Layer 2"><g id="Layer_1-2" data-name="Layer 1"><path class="cls-1" d="M33.36,71.94a1.24,1.24,0,0,1-.87-.36l-3.38-3.33a1.24,1.24,0,0,1-.37-.88V63.83a1.24,1.24,0,0,1,.74-1.14l.4-.17-.45-.22a1.24,1.24,0,0,1-.7-1.11v-1.5a1.24,1.24,0,0,1,.75-1.14l.38-.16-.43-.21a1.24,1.24,0,0,1-.7-1.12V54.87a1.24,1.24,0,0,1,.63-1.08,1.24,1.24,0,0,1-.63-1.08V40.58A12.44,12.44,0,1,1,45.77,29a12.59,12.59,0,0,1-7.92,11.59v6.13a1.24,1.24,0,0,1-.55,1,1.24,1.24,0,0,1,.55,1V67.36a1.24,1.24,0,0,1-.35.86l-3.24,3.33a1.24,1.24,0,0,1-.88.38Zm-2.14-5.1,2.12,2.09,2-2.08V49.66L33.7,49a1.24,1.24,0,0,1-.07-2.29l1.73-.79V39.73a1.24,1.24,0,0,1,.87-1.18,10.09,10.09,0,0,0,7-9.53,10,10,0,1,0-19.92,0,9.88,9.88,0,0,0,7,9.5,1.24,1.24,0,0,1,.88,1.19V51.86l2.07.79a1.24,1.24,0,0,1,0,2.32l-2.05.76v.54l2.16,1a1.24,1.24,0,0,1,0,2.26l-2,.87,2.07,1a1.24,1.24,0,0,1,0,2.25l-2.12.92Zm5.38-20.1h0ZM33.3,29.21A4.26,4.26,0,1,1,37.56,25a4.26,4.26,0,0,1-4.26,4.26m0-6A1.77,1.77,0,1,0,35.08,25a1.78,1.78,0,0,0-1.77-1.77"/><path class="cls-1" d="M62.15,65.88a1.29,1.29,0,0,1-.29,0l-4.62-1.1a1.23,1.23,0,0,1-.77-.56l-1.83-3a1.24,1.24,0,0,1,0-1.36l.25-.35-.49,0a1.24,1.24,0,0,1-1.17-.59l-.78-1.28a1.24,1.24,0,0,1,0-1.36l.24-.34-.47,0a1.24,1.24,0,0,1-1.18-.59L50,53.5a1.24,1.24,0,0,1,0-1.25,1.24,1.24,0,0,1-1.1-.6L42.12,40.53a1.24,1.24,0,0,1,2.12-1.29l6.31,10.4,2.18-.39a1.24,1.24,0,0,1,1.19,2L52.57,53l.28.47,2.39-.22a1.24,1.24,0,0,1,1.13,2L55.1,56.94l2.29-.21a1.24,1.24,0,0,1,1.13,2l-1.33,1.89,1.14,1.88,2.89.69.65-2.82L53,45.61l-1.76.32A1.24,1.24,0,0,1,49.95,44L51,42.43,47.8,37.12a1.24,1.24,0,0,1,.13-1.46A10,10,0,0,0,37.31,19.58a1.24,1.24,0,1,1-.8-2.35A12.44,12.44,0,0,1,50.38,36.58l3.18,5.24A1.24,1.24,0,0,1,53.62,43a1.24,1.24,0,0,1,1,.6l9.63,15.86a1.24,1.24,0,0,1,.15.92l-1,4.53a1.24,1.24,0,0,1-1.21,1"/><path class="cls-1" d="M17.82,35.63A17.8,17.8,0,1,1,34.5,24.08a1.24,1.24,0,1,1-2.32-.87,15.32,15.32,0,1,0-9.48,9.15,1.24,1.24,0,1,1,.79,2.35,17.81,17.81,0,0,1-5.67.92"/></g></g></svg>