<svg xmlns="http://www.w3.org/2000/svg" viewBox="0 0 10.72 19.1"><defs><style>.cls-1{fill:#0e283c;}</style></defs><title>kitchen</title><g id="Layer_2" data-name="Layer 2"><g id="Layer_1-2" data-name="Layer 1"><path class="cls-1" d="M2.39,19.1a1,1,0,0,1-.79-.37C.83,17.85.73,15.25,1.29,11a6.23,6.23,0,0,0,0-2.28l0-.09a1.52,1.52,0,0,0-.2-.28A4.55,4.55,0,0,1,0,5.14H.64A3.93,3.93,0,0,0,1.58,8a1.32,1.32,0,0,1,.33.57l0,.09a6.76,6.76,0,0,1,0,2.47c-.74,5.51-.13,6.89.16,7.22a.39.39,0,0,0,.63,0c.29-.34.9-1.71.16-7.22a6.77,6.77,0,0,1,0-2.47l0-.09a1.64,1.64,0,0,1,.38-.64,4.15,4.15,0,0,0,1-2.74h.63A4.77,4.77,0,0,1,3.74,8.27a2.11,2.11,0,0,0-.26.37l0,.09a6.23,6.23,0,0,0,0,2.28c.57,4.24.46,6.84-.31,7.72A1,1,0,0,1,2.39,19.1Z"/><path class="cls-1" d="M8.58,19.1c-1.21,0-1.25-1.77-1.29-4,0-2,0-4.46,0-4.48,0-.64,0-3.94,0-6.63,0-1.85,0-3.41,0-3.62A.35.35,0,0,1,7.57,0C8-.07,9.16.69,10,2.8a16.81,16.81,0,0,1,.55,7.47c-.08.44-.45.63-1.1.58a2.76,2.76,0,0,0,0,.39l.08.58c.38,2.81.72,5.89-.17,6.91A1,1,0,0,1,8.58,19.1ZM7.9.78c0,.62,0,1.83,0,3.19,0,2.69,0,6,0,6.63,0,0,0,2.47,0,4.46,0,1.67.06,3.4.66,3.4a.38.38,0,0,0,.3-.14c.78-.89.25-4.76,0-6.41l-.08-.59c-.07-.66,0-.87.13-1a.4.4,0,0,1,.31-.13h.12c.47.05.53,0,.54-.06h0A16.41,16.41,0,0,0,9.39,3,5,5,0,0,0,7.9.78Z"/><rect class="cls-1" x="0.01" y="0.79" width="0.63" height="4.36" transform="translate(-0.01 0) rotate(-0.15)"/><rect class="cls-1" x="1.43" y="0.79" width="0.63" height="4.36" transform="translate(-0.01 0) rotate(-0.15)"/><rect class="cls-1" x="2.85" y="0.79" width="0.63" height="4.36" transform="translate(-0.01 0.01) rotate(-0.15)"/><rect class="cls-1" x="4.27" y="0.79" width="0.63" height="4.36" transform="translate(-0.01 0.01) rotate(-0.15)"/></g></g></svg>