<svg xmlns="http://www.w3.org/2000/svg" viewBox="0 0 13.48 18.87"><defs><style>.cls-1{fill:#0e283c;}</style></defs><title>lamp</title><g id="Layer_2" data-name="Layer 2"><g id="Layer_1-2" data-name="Layer 1"><path class="cls-1" d="M7.32,18.87H6.65V18.5a.23.23,0,0,0-.23-.23H3.76a.9.9,0,0,1,0-1.79h6a.23.23,0,1,0,0-.45h-6a.9.9,0,1,1,0-1.79h6A.23.23,0,0,0,9.95,14v-.05a.23.23,0,0,0-.23-.23h-6a.9.9,0,0,1-.9-.9v-.49a.15.15,0,0,0-.06-.12A6.74,6.74,0,0,1,6.47,0a6.74,6.74,0,0,1,7,6.73,6.73,6.73,0,0,1-3,5.61l-.37-.56a6.07,6.07,0,1,0-6.9-.13.82.82,0,0,1,.34.67v.49a.23.23,0,0,0,.23.23h6a.9.9,0,0,1,.9.9V14a.9.9,0,0,1-.9.9h-6a.23.23,0,1,0,0,.45h6a.9.9,0,1,1,0,1.79h-6a.23.23,0,0,0,0,.45H6.42a.9.9,0,0,1,.9.9Z"/><path class="cls-1" d="M6.1,12l-.17,0a.52.52,0,0,1-.35-.59l.55-3.33H4.68a.53.53,0,0,1-.47-.76L6.91,2a.53.53,0,0,1,1,.32L7.35,5.73H8.79a.53.53,0,0,1,.47.77l-2.7,5.25A.52.52,0,0,1,6.1,12ZM4.92,7.42H6.3A.53.53,0,0,1,6.81,8l-.43,2.59L8.56,6.4H7.18a.53.53,0,0,1-.52-.61l.44-2.68Z"/></g></g></svg>