<?xml version="1.0" encoding="UTF-8"?>
<svg width="64px" height="69px" viewBox="0 0 64 69" version="1.1" xmlns="http://www.w3.org/2000/svg" xmlns:xlink="http://www.w3.org/1999/xlink">
    <!-- Generator: Sketch 53.2 (72643) - https://sketchapp.com -->
    <title>location</title>
    <desc>Created with Sketch.</desc>
    <g id="Page-1" stroke="none" stroke-width="1" fill="none" fill-rule="evenodd">
        <g id="location" fill="#937850" fill-rule="nonzero" stroke="#937850">
            <path d="M31,60 C31.185019,60.2807649 31.4987546,60.4497501 31.835,60.4497501 C32.1712454,60.4497501 32.484981,60.2807649 32.67,60 L49.41,31 C53.0436026,24.7105419 53.0455784,16.9602862 49.4151831,10.6689763 C45.7847879,4.37766635 39.0736319,0.501217845 31.81,0.5 C24.5327294,0.45576043 17.7987811,4.34470163 14.2,10.67 C10.5245147,16.9482951 10.5245147,24.7217049 14.2,31 L31,60 Z M15.87,11.63 C19.1568088,5.93689079 25.2312184,2.42977038 31.805,2.42977038 C38.3787816,2.42977038 44.4531912,5.93689079 47.74,11.63 C51.0665447,17.3122776 51.0665447,24.3477224 47.74,30.03 L31.81,57.63 L15.87,30 C12.555151,24.3252877 12.555151,17.3047123 15.87,11.63 Z" id="Shape"></path>
            <path d="M31.81,34.73 C39.6524434,34.73 46.01,28.3724434 46.01,20.53 C46.01,12.6875566 39.6524434,6.33 31.81,6.33 C23.9675566,6.33 17.61,12.6875566 17.61,20.53 C17.6155154,28.3701578 23.9698422,34.7244846 31.81,34.73 L31.81,34.73 Z M31.81,8.27 C38.5797065,8.27552179 44.0636786,13.7669534 44.0599982,20.5366612 C44.0563177,27.306369 38.5663779,32.7918346 31.7966694,32.7899955 C25.0269608,32.7881564 19.5400023,27.2997088 19.54,20.53 C19.5510244,13.7596571 25.0396503,8.27550434 31.81,8.27 L31.81,8.27 Z" id="Shape"></path>
            <path d="M42.72,50.81 C42.3262407,50.6594577 41.8803622,50.7720139 41.6052323,51.0914085 C41.3301024,51.4108031 41.2848161,51.8684336 41.4920092,52.2355581 C41.6992023,52.6026826 42.114372,52.8004467 42.53,52.73 C54.64,53.9 61.17,56.8 61.17,58.93 C61.17,61.45 51.51,65.28 34.06,65.61 L31.8,65.61 L29.55,65.61 C12.09,65.28 2.43,61.45 2.43,58.93 C2.43,56.8 8.96,53.93 21.08,52.73 C21.495628,52.8004467 21.9107977,52.6026826 22.1179908,52.2355581 C22.3251839,51.8684336 22.2798976,51.4108031 22.0047677,51.0914085 C21.7296378,50.7720139 21.2837593,50.6594577 20.89,50.81 C16.11,51.27 0.5,53.22 0.5,58.93 C0.5,64.47 15.5,67.28 29.5,67.54 L31.79,67.54 L34.08,67.54 C48.08,67.28 63.08,64.47 63.08,58.93 C63.11,53.22 47.5,51.27 42.72,50.81 Z" id="Path"></path>
        </g>
    </g>
</svg>