<svg xmlns="http://www.w3.org/2000/svg" viewBox="0 0 20.53 16.92"><defs><style>.cls-1{fill:#0e283c;}</style></defs><title>m-bag</title><g id="Layer_2" data-name="Layer 2"><g id="Layer_1-2" data-name="Layer 1"><path class="cls-1" d="M18.39,16.92H2.14A1.69,1.69,0,0,1,.45,15.23V8.46a.33.33,0,1,1,.66,0v6.77a1,1,0,0,0,1,1H18.39a1,1,0,0,0,1-1V8.46a.33.33,0,1,1,.66,0v6.77A1.69,1.69,0,0,1,18.39,16.92Z"/><path class="cls-1" d="M7.56,12H5.3A.33.33,0,0,1,5,11.62V9.36A.33.33,0,0,1,5.3,9H7.56a.33.33,0,0,1,.33.33v2.26A.33.33,0,0,1,7.56,12Zm-1.93-.66h1.6V9.69H5.63Z"/><path class="cls-1" d="M15.23,12H13a.33.33,0,0,1-.33-.33V9.36A.33.33,0,0,1,13,9h2.26a.33.33,0,0,1,.33.33v2.26A.33.33,0,0,1,15.23,12Zm-1.93-.66h1.6V9.69H13.3Z"/><path class="cls-1" d="M13,2.92a.33.33,0,0,1-.33-.33V1.23a.57.57,0,0,0-.57-.57H8a.57.57,0,0,0-.57.57V2.59a.33.33,0,0,1-.66,0V1.23A1.23,1.23,0,0,1,8,0h4.06A1.23,1.23,0,0,1,13.3,1.23V2.59A.33.33,0,0,1,13,2.92Z"/><path class="cls-1" d="M13,10.14H7.56a.33.33,0,1,1,0-.66H13a.33.33,0,1,1,0,.66Z"/><path class="cls-1" d="M16.14,10.14h-.9a.33.33,0,1,1,0-.66h.9c1.5,0,3.73-.81,3.73-1.93V3.49a.57.57,0,0,0-.57-.57H1.23a.57.57,0,0,0-.57.57V7.56c0,1.12,2.23,1.93,3.73,1.93h.9a.33.33,0,1,1,0,.66h-.9C2.82,10.14,0,9.28,0,7.56V3.49A1.23,1.23,0,0,1,1.23,2.26H19.3a1.23,1.23,0,0,1,1.23,1.23V7.56C20.53,9.28,17.71,10.14,16.14,10.14Z"/></g></g></svg>