<svg xmlns="http://www.w3.org/2000/svg" viewBox="0 0 55.52 58.26"><defs><style>.cls-1{fill:#fff;}</style></defs><title>masks</title><g id="Layer_2" data-name="Layer 2"><g id="Layer_1-2" data-name="Layer 1"><path class="cls-1" d="M2.14,23.63C1.3,28.08.66,43.26,7.28,51.38a14.28,14.28,0,0,0,11.63,5.3,13.91,13.91,0,0,0,10.32-4.23c7.56-7.73,7.66-23.65,7.61-26.58-2-1-10.92-4.92-17.93-4.92S4.08,23.07,2.14,23.63M18.9,58.26A15.83,15.83,0,0,1,6,52.37C2.08,47.53.7,40.65.24,35.72A47,47,0,0,1,.65,22.84l.1-.44.44-.14c.38-.12,9.45-2.89,17.7-2.89A39.24,39.24,0,0,1,31.63,22,63.65,63.65,0,0,1,38,24.66l.42.21,0,.46A61.07,61.07,0,0,1,37.76,36c-1.19,7.87-3.66,13.77-7.36,17.55A15.48,15.48,0,0,1,18.9,58.26"/><path class="cls-1" d="M16.45,34.89a.8.8,0,0,1-.81-.79,2.69,2.69,0,0,0-5.37,0,.81.81,0,0,1-1.62,0,4.3,4.3,0,0,1,8.6,0,.8.8,0,0,1-.81.79"/><path class="cls-1" d="M28.6,35.51a.8.8,0,0,1-.81-.79,2.69,2.69,0,0,0-5.37,0,.81.81,0,0,1-1.61,0,4.3,4.3,0,0,1,8.6,0,.8.8,0,0,1-.81.79"/><path class="cls-1" d="M18.27,46.73c-6.1,0-8-6.09-8-6.15a.79.79,0,0,1,.55-1,.81.81,0,0,1,1,.54c.06.2,1.56,5,6.44,5a7.28,7.28,0,0,0,6.72-4A.81.81,0,0,1,26,40.75a.78.78,0,0,1,.43,1,8.81,8.81,0,0,1-8.21,4.95"/><path class="cls-1" d="M38.69,39.7a15.17,15.17,0,0,1-2.37-.19L36.57,38a15.15,15.15,0,0,0,8.15-1.09,13.63,13.63,0,0,0,7.87-7.79c3.95-10-2.21-24.72-3.4-27.4-2.26-.11-12-.42-18.48,2.21s-12.85,7.54-14.43,8.79A42.83,42.83,0,0,0,18.83,20l-1.48.63a40.34,40.34,0,0,1-2.76-8.14L14.52,12l.35-.29c.31-.25,7.59-6.22,15.21-9.33S49.3.08,49.78.12l.47,0,.2.42A61.46,61.46,0,0,1,54,10.66c2,7.71,2,14.1.09,19a15.17,15.17,0,0,1-8.75,8.68,17.6,17.6,0,0,1-6.66,1.38"/><path class="cls-1" d="M27.15,20.37a.81.81,0,0,1-.75-.49,4.1,4.1,0,0,1,0-3.22,4.22,4.22,0,0,1,2.32-2.28,4.36,4.36,0,0,1,3.29,0,4.23,4.23,0,0,1,2.33,2.28.78.78,0,0,1-.43,1,.81.81,0,0,1-1.06-.43,2.71,2.71,0,0,0-3.51-1.42,2.64,2.64,0,0,0-1.45,1.43,2.56,2.56,0,0,0,0,2,.79.79,0,0,1-.43,1,.81.81,0,0,1-.31.06"/><path class="cls-1" d="M38.61,16.36a.81.81,0,0,1-.75-.49,4.11,4.11,0,0,1,0-3.22,4.23,4.23,0,0,1,2.32-2.29,4.35,4.35,0,0,1,3.29,0,4.22,4.22,0,0,1,2.33,2.27.78.78,0,0,1-.43,1,.81.81,0,0,1-1.06-.43,2.64,2.64,0,0,0-1.46-1.42,2.72,2.72,0,0,0-2.06,0,2.64,2.64,0,0,0-1.45,1.43,2.56,2.56,0,0,0,0,2,.78.78,0,0,1-.43,1,.81.81,0,0,1-.31.06"/><path class="cls-1" d="M34.87,24.94a.82.82,0,0,1-.49-.16.78.78,0,0,1-.14-1.11,7.7,7.7,0,0,1,3.19-2.36,9,9,0,0,1,9.52,1.48.78.78,0,0,1,0,1.12.82.82,0,0,1-1.14,0A7.34,7.34,0,0,0,38,22.77a6.12,6.12,0,0,0-2.54,1.87.81.81,0,0,1-.64.31"/></g></g></svg>