<svg xmlns="http://www.w3.org/2000/svg" viewBox="0 0 19.39 16.66"><defs><style>.cls-1{fill:#0e283c;}</style></defs><title>medical-bag</title><g id="Layer_2" data-name="Layer 2"><g id="Layer_1-2" data-name="Layer 1"><path class="cls-1" d="M18.44,16.66H1a1,1,0,0,1-1-1V3.82a1,1,0,0,1,1-1H18.44a1,1,0,0,1,1,1V15.71A1,1,0,0,1,18.44,16.66ZM1,3.52a.3.3,0,0,0-.3.3V15.71A.3.3,0,0,0,1,16H18.44a.3.3,0,0,0,.3-.3V3.82a.3.3,0,0,0-.3-.3Z"/><path class="cls-1" d="M10.41,13.7H9a.88.88,0,0,1-.88-.88V11.35H6.64a.88.88,0,0,1-.88-.88V9.05a.88.88,0,0,1,.88-.88H8.11V6.7A.88.88,0,0,1,9,5.82h1.42a.88.88,0,0,1,.88.88V8.17h1.47a.88.88,0,0,1,.88.88v1.42a.88.88,0,0,1-.88.88H11.29v1.47A.88.88,0,0,1,10.41,13.7ZM6.64,8.82a.23.23,0,0,0-.23.23v1.42a.23.23,0,0,0,.23.23H8.43a.32.32,0,0,1,.32.32v1.79a.23.23,0,0,0,.23.23h1.42a.23.23,0,0,0,.23-.23V11A.32.32,0,0,1,11,10.7h1.79a.23.23,0,0,0,.23-.23V9.05a.23.23,0,0,0-.23-.23H11a.32.32,0,0,1-.32-.32V6.7a.23.23,0,0,0-.23-.23H9a.23.23,0,0,0-.23.23V8.5a.32.32,0,0,1-.32.32Z"/><path class="cls-1" d="M12.54,3.48a.32.32,0,0,1-.32-.32V1.35a.71.71,0,0,0-.71-.7H7.88a.71.71,0,0,0-.71.7v1.8a.32.32,0,1,1-.65,0V1.35A1.36,1.36,0,0,1,7.88,0h3.62a1.36,1.36,0,0,1,1.35,1.35v1.8A.32.32,0,0,1,12.54,3.48Z"/></g></g></svg>