<?xml version="1.0" encoding="UTF-8"?>
<svg width="16px" height="17px" viewBox="0 0 16 17" version="1.1" xmlns="http://www.w3.org/2000/svg" xmlns:xlink="http://www.w3.org/1999/xlink">
    <!-- Generator: Sketch 53.1 (72631) - https://sketchapp.com -->
    <title>metro</title>
    <desc>Created with Sketch.</desc>
    <g id="Page-1" stroke="none" stroke-width="1" fill="none" fill-rule="evenodd">
        <g id="metro" fill="#000000" fill-rule="nonzero">
            <path d="M11.2322873,11.86 L13.3664026,13.96285 L15.7364026,16.32285 L15.3835974,16.67715 L14.1612925,15.46 L1.66888791,15.46 L0.356416295,16.7671364 L0.00358370459,16.4128636 L2.46124095,13.9652281 L4.51951233,11.86 L3.19,11.86 C2.24007023,11.86 1.47,11.0899298 1.47,10.14 L1.47,1.72 C1.47,0.77007023 2.24007023,-2.69589942e-16 3.19,-4.4408921e-16 L12.67,0 C13.6199298,6.69207854e-16 14.39,0.77007023 14.39,1.72 L14.39,10.14 C14.39,11.0899298 13.6199298,11.86 12.67,11.86 L11.2322873,11.86 Z M10.5199049,11.86 L5.21877492,11.86 L4.22151411,12.88 L11.5550722,12.88 L10.5199049,11.86 Z M13.6591749,14.96 L13.0145327,14.3180765 L12.0625071,13.38 L3.73266077,13.38 L2.8164163,14.3171364 L2.17092872,14.96 L13.6591749,14.96 Z M3.92,1.43 C3.30144108,1.43 2.8,1.93144108 2.8,2.55 L2.8,4.81 C2.8,5.42855892 3.30144108,5.93 3.92,5.93 L11.94,5.93 C12.5585589,5.93 13.06,5.42855892 13.06,4.81 L13.06,2.55 C13.06,1.93144108 12.5585589,1.43 11.94,1.43 L3.92,1.43 Z M3.95,9.77 C4.65692448,9.77 5.23,9.19692448 5.23,8.49 C5.23,7.78307552 4.65692448,7.21 3.95,7.21 C3.24307552,7.21 2.67,7.78307552 2.67,8.49 C2.67,9.19692448 3.24307552,9.77 3.95,9.77 Z M11.64,9.77 C12.3469245,9.77 12.92,9.19692448 12.92,8.49 C12.92,7.78307552 12.3469245,7.21 11.64,7.21 C10.9330755,7.21 10.36,7.78307552 10.36,8.49 C10.36,9.19692448 10.9330755,9.77 11.64,9.77 Z" id="Combined-Shape"></path>
        </g>
    </g>
</svg>