<svg xmlns="http://www.w3.org/2000/svg" viewBox="0 0 125.29 64.95"><defs><style>.cls-1{fill:#927854;}</style></defs><title>mix-use</title><g id="Layer_2" data-name="Layer 2"><g id="Layer_1-2" data-name="Layer 1"><path class="cls-1" d="M124.1,64.95h-73a1.19,1.19,0,0,1,0-2.38h73a1.19,1.19,0,0,1,0,2.38Z"/><path class="cls-1" d="M119.73,64.95H55.1a1.19,1.19,0,0,1-1.19-1.19V1.19A1.19,1.19,0,0,1,55.1,0H89.88a1.19,1.19,0,0,1,1.19,1.19V35.25h28.66a1.19,1.19,0,0,1,1.19,1.19V63.76A1.19,1.19,0,0,1,119.73,64.95ZM56.29,62.57h62.25V37.64H89.88a1.19,1.19,0,0,1-1.19-1.19V2.38H56.29Z"/><path class="cls-1" d="M72.17,9.05h-2.7a1.19,1.19,0,1,1,0-2.38h2.7a1.19,1.19,0,1,1,0,2.38Z"/><path class="cls-1" d="M63.28,9.05h-2.7a1.19,1.19,0,1,1,0-2.38h2.7a1.19,1.19,0,1,1,0,2.38Z"/><path class="cls-1" d="M89.8,9.05H78.37a1.19,1.19,0,1,1,0-2.38H89.8a1.19,1.19,0,0,1,0,2.38Z"/><path class="cls-1" d="M72.17,16.2h-2.7a1.19,1.19,0,1,1,0-2.38h2.7a1.19,1.19,0,1,1,0,2.38Z"/><path class="cls-1" d="M63.28,16.2h-2.7a1.19,1.19,0,1,1,0-2.38h2.7a1.19,1.19,0,1,1,0,2.38Z"/><path class="cls-1" d="M89.8,16.2H78.37a1.19,1.19,0,1,1,0-2.38H89.8a1.19,1.19,0,0,1,0,2.38Z"/><path class="cls-1" d="M72.17,23.34h-2.7a1.19,1.19,0,1,1,0-2.38h2.7a1.19,1.19,0,1,1,0,2.38Z"/><path class="cls-1" d="M63.28,23.34h-2.7a1.19,1.19,0,1,1,0-2.38h2.7a1.19,1.19,0,1,1,0,2.38Z"/><path class="cls-1" d="M89.8,23.34H78.37a1.19,1.19,0,1,1,0-2.38H89.8a1.19,1.19,0,0,1,0,2.38Z"/><path class="cls-1" d="M72.17,30.49h-2.7a1.19,1.19,0,1,1,0-2.38h2.7a1.19,1.19,0,1,1,0,2.38Z"/><path class="cls-1" d="M63.28,30.49h-2.7a1.19,1.19,0,1,1,0-2.38h2.7a1.19,1.19,0,1,1,0,2.38Z"/><path class="cls-1" d="M89.8,30.49H78.37a1.19,1.19,0,1,1,0-2.38H89.8a1.19,1.19,0,0,1,0,2.38Z"/><path class="cls-1" d="M72.17,37.64h-2.7a1.19,1.19,0,1,1,0-2.38h2.7a1.19,1.19,0,1,1,0,2.38Z"/><path class="cls-1" d="M63.28,37.64h-2.7a1.19,1.19,0,1,1,0-2.38h2.7a1.19,1.19,0,1,1,0,2.38Z"/><path class="cls-1" d="M90,37.64H78.37a1.19,1.19,0,1,1,0-2.38H90a1.19,1.19,0,0,1,0,2.38Z"/><path class="cls-1" d="M72.17,45.1h-2.7a1.19,1.19,0,1,1,0-2.38h2.7a1.19,1.19,0,1,1,0,2.38Z"/><path class="cls-1" d="M63.28,45.1h-2.7a1.19,1.19,0,1,1,0-2.38h2.7a1.19,1.19,0,1,1,0,2.38Z"/><path class="cls-1" d="M90,45.1H78.37a1.19,1.19,0,1,1,0-2.38H90a1.19,1.19,0,0,1,0,2.38Z"/><path class="cls-1" d="M101.87,45.1H95.36a1.19,1.19,0,1,1,0-2.38h6.51a1.19,1.19,0,0,1,0,2.38Z"/><path class="cls-1" d="M114.25,45.1h-6.51a1.19,1.19,0,0,1,0-2.38h6.51a1.19,1.19,0,1,1,0,2.38Z"/><path class="cls-1" d="M90,52.09H85.83a1.19,1.19,0,0,1,0-2.38H90a1.19,1.19,0,0,1,0,2.38Z"/><path class="cls-1" d="M101.87,52.09H95.36a1.19,1.19,0,1,1,0-2.38h6.51a1.19,1.19,0,0,1,0,2.38Z"/><path class="cls-1" d="M114.25,52.09h-6.51a1.19,1.19,0,0,1,0-2.38h6.51a1.19,1.19,0,1,1,0,2.38Z"/><path class="cls-1" d="M90,58.76H85.83a1.19,1.19,0,0,1,0-2.38H90a1.19,1.19,0,0,1,0,2.38Z"/><path class="cls-1" d="M101.87,58.76H95.36a1.19,1.19,0,1,1,0-2.38h6.51a1.19,1.19,0,0,1,0,2.38Z"/><path class="cls-1" d="M114.25,58.76h-6.51a1.19,1.19,0,0,1,0-2.38h6.51a1.19,1.19,0,1,1,0,2.38Z"/><path class="cls-1" d="M78.39,64.95H64.93a1.19,1.19,0,0,1-1.19-1.19V50.89a1.19,1.19,0,0,1,1.19-1.19H78.39a1.19,1.19,0,0,1,1.19,1.19V63.76A1.19,1.19,0,0,1,78.39,64.95ZM66.12,62.57H77.2V52.09H66.12Z"/><path class="cls-1" d="M71.62,64.39a1.19,1.19,0,0,1-1.19-1.19V51a1.19,1.19,0,1,1,2.38,0V63.2A1.19,1.19,0,0,1,71.62,64.39Z"/><path class="cls-1" d="M38.41,35a1.19,1.19,0,0,0-1.19,1.19V43.3a1.19,1.19,0,0,0,1.19,1.19h8.65a1.19,1.19,0,0,0,1.19-1.19V36.16A1.19,1.19,0,0,0,47.06,35Zm7.46,7.14H39.6V37.35h6.27Z"/><path class="cls-1" d="M54.07,28.39,43.53,20.16a1.19,1.19,0,0,0-1.46,0l-3.93,3a8.92,8.92,0,0,0-11.38-7A10,10,0,0,0,7.22,17.27a8.91,8.91,0,0,0-5,14,5.49,5.49,0,0,0,3,9.9,6.45,6.45,0,0,0,9.32,5.31V56a5.31,5.31,0,0,0-1.94,6.55H5.72a1.19,1.19,0,1,0,0,2.38H54.07V62.57H48.25V49.48a1.19,1.19,0,0,0-1.19-1.19H38.41a1.19,1.19,0,0,0-1.19,1.19V62.57H24.05V37.26a1.2,1.2,0,0,0,0-.13L42.8,22.61l11.27,8.8ZM39.6,50.67h6.27V62.57H39.6ZM15.43,62.57l0-.05a2.92,2.92,0,0,1-.86-2.08,3,3,0,0,1,1.68-2.65,4.26,4.26,0,0,0,1.47,1.84l1.33-2h0a1.84,1.84,0,0,1-.71-1.19,1.19,1.19,0,0,0,0-.15v0a2.31,2.31,0,0,1,3.37-2v8.31Zm6.25-10.82a4.68,4.68,0,0,0-4.77,1.71V42.62l.2-.12L21.67,39ZM16.9,39.64v-1.9A10.5,10.5,0,0,0,15.21,32l-.08-.1-3.81-4.67a1.19,1.19,0,1,0-1.85,1.51l3.77,4.62a8.12,8.12,0,0,1,1.28,4.37v5.87l0,0a4.06,4.06,0,0,1-6.94-2.82,5.58,5.58,0,0,0,.54-.25A1.19,1.19,0,1,0,7,38.46a3.1,3.1,0,0,1-3-5.43,8.86,8.86,0,0,0,4.81,1.8h.08a1.19,1.19,0,0,0,.08-2.38,6.54,6.54,0,0,1-.44-13,1.19,1.19,0,0,0,1-1.12s0-.06,0-.09v0a7.6,7.6,0,0,1,14.78-2,5.5,5.5,0,0,0-5.75,3.25,1.19,1.19,0,1,0,2.18,1,3.11,3.11,0,1,1,5.7,2.48,1.19,1.19,0,1,0,2.18,1,5.45,5.45,0,0,0,.07-4.2,5.51,5.51,0,0,0-.75-1.33A6.53,6.53,0,0,1,35.88,25Z"/><path class="cls-1" d="M22.73,28.82a1.19,1.19,0,0,0-1.64.36l-2.75,4.31a1.19,1.19,0,1,0,2,1.28l2.75-4.31A1.19,1.19,0,0,0,22.73,28.82Z"/></g></g></svg>