<?xml version="1.0" encoding="UTF-8"?>
<svg width="71px" height="79px" viewBox="0 0 71 79" version="1.1" xmlns="http://www.w3.org/2000/svg" xmlns:xlink="http://www.w3.org/1999/xlink">
    <!-- Generator: Sketch 53.2 (72643) - https://sketchapp.com -->
    <title>moving-in</title>
    <desc>Created with Sketch.</desc>
    <g id="Page-1" stroke="none" stroke-width="1" fill="none" fill-rule="evenodd">
        <g id="moving-in" fill="#937850" fill-rule="nonzero">
            <path d="M36.36,78.41 C35.9870915,78.423796 35.6251057,78.2826215 35.36,78.02 L31.68,74.38 C31.4137155,74.1165898 31.2688355,73.7543898 31.28,73.38 L31.28,69.57 C31.2789231,69.0322287 31.597123,68.5451079 32.09,68.33 L32.52,68.14 L32.03,67.9 C31.5632379,67.6732074 31.2677915,67.1989382 31.27,66.68 L31.27,65.05 C31.2689231,64.5122287 31.587123,64.0251079 32.08,63.81 L32.49,63.63 L32.02,63.4 C31.5532379,63.1732074 31.2577915,62.6989382 31.26,62.18 L31.26,59.81 C31.2690531,59.309961 31.5538041,58.8558987 32,58.63 C31.5770025,58.3881968 31.31712,57.9372241 31.32,57.45 L31.32,44.23 C24.9663183,41.715429 21.4762999,34.8660966 23.1764021,28.2477894 C24.8765043,21.6294821 31.2355135,17.3101552 38.014494,18.1690855 C44.7934745,19.0280158 49.8742674,24.7968221 49.87,31.63 C49.8262169,37.2046366 46.4160177,42.1994127 41.24,44.27 L41.24,50.95 C41.242516,51.4035407 41.0171202,51.828036 40.64,52.08 C41.0171202,52.331964 41.242516,52.7564593 41.24,53.21 L41.24,73.42 C41.2402765,73.7708046 41.1039875,74.1079404 40.86,74.36 L37.33,78 C37.0683034,78.2699559 36.7058833,78.4185481 36.33,78.41 L36.36,78.41 Z M34,72.85 L36.31,75.13 L38.51,72.87 L38.51,54.12 L36.69,53.42 C36.1820675,53.2241834 35.8414417,52.742457 35.8261441,52.1983012 C35.8108466,51.6541453 36.1238707,51.1540433 36.62,50.93 L38.51,50.07 L38.51,43.3 C38.5092429,42.696287 38.9094035,42.1654617 39.49,42 C44.0285524,40.5633811 47.1279534,36.3703113 47.17,31.61 C47.17,25.614949 42.310051,20.755 36.315,20.755 C30.319949,20.755 25.46,25.614949 25.46,31.61 C25.4164635,36.3794135 28.5179351,40.608323 33.08,42 C33.6649683,42.1569933 34.073782,42.6843631 34.08,43.29 L34.08,56.53 L36.33,57.39 C36.8582442,57.5868745 37.2085395,58.0912611 37.2085395,58.655 C37.2085395,59.2187389 36.8582442,59.7231255 36.33,59.92 L34,60.75 L34,61.34 L36.36,62.48 C36.8389046,62.708209 37.1397611,63.1957486 37.1289808,63.7261378 C37.1182005,64.2565271 36.7977821,64.7314391 36.31,64.94 L34.11,65.94 L36.39,67 C36.8689046,67.228209 37.1697611,67.7157486 37.1589808,68.2461378 C37.1482005,68.7765271 36.8277821,69.2514391 36.34,69.46 L34.03,70.46 L34,72.85 Z M36.3,31.84 C33.7373988,31.84 31.66,29.7626012 31.66,27.2 C31.66,24.6373988 33.7373988,22.56 36.3,22.56 C38.8626012,22.56 40.94,24.6373988 40.94,27.2 C40.94,28.4306045 40.4511443,29.6108067 39.5809755,30.4809755 C38.7108067,31.3511443 37.5306045,31.84 36.3,31.84 Z M36.3,25.27 C35.2340904,25.27 34.37,26.1340904 34.37,27.2 C34.37,28.2659096 35.2340904,29.13 36.3,29.13 C37.3659096,29.13 38.23,28.2659096 38.23,27.2 C38.2300142,26.1324607 37.3675251,25.2655028 36.3,25.26 L36.3,25.27 Z" id="Shape"></path>
            <path d="M67.74,71.8 C67.6370095,71.8119036 67.5329905,71.8119036 67.43,71.8 L62.43,70.6 C62.0798875,70.5167547 61.7775033,70.2971662 61.59,69.99 L59.59,66.7 C59.310465,66.2407253 59.3301057,65.6593615 59.64,65.22 L59.91,64.83 L59.37,64.83 C58.8539451,64.8769483 58.3565579,64.6243689 58.09,64.18 L57.24,62.78 C56.960465,62.3207253 56.9801057,61.7393615 57.29,61.3 L57.55,60.93 L57,61 C56.4839451,61.0469483 55.9865579,60.7943689 55.72,60.35 L54.48,58.35 C54.2349777,57.9297747 54.2349777,57.4102253 54.48,56.99 C53.995905,57.0006251 53.5426703,56.75306 53.29,56.34 L45.91,44.17 C45.659914,43.7573582 45.6489669,43.2426423 45.8812822,42.8197406 C46.1135974,42.396839 46.553881,42.1300004 47.0362822,42.1197406 C47.5186834,42.1094807 47.9699141,42.3573582 48.22,42.77 L55.1,54.1 L57.47,53.67 C58.0241658,53.5676848 58.583586,53.8203573 58.8731931,54.3037784 C59.1628001,54.7871994 59.1216595,55.399655 58.77,55.84 L57.29,57.71 L57.6,58.22 L60.21,58 C60.7375434,57.9478514 61.2467821,58.2092817 61.5118788,58.6683517 C61.7769756,59.1274217 61.7488597,59.6991552 61.44,60.13 L60.06,62.13 L62.56,61.9 C63.0755125,61.8617129 63.5676257,62.1211631 63.8272985,62.5681409 C64.0869713,63.0151186 64.0686045,63.5711334 63.78,64 L62.33,66 L63.57,68 L66.73,68.75 L67.44,65.67 L57.71,49.67 L55.79,50.01 C55.2806375,50.0781782 54.7767426,49.8512467 54.4902117,49.4246339 C54.2036807,48.9980212 54.184215,48.4457268 54.44,48 L55.61,46.29 L52.1,40.46 C51.7898327,39.9538882 51.8466494,39.304554 52.24,38.86 C55.5235186,35.1817236 55.9170121,29.7530214 53.1982605,25.6396771 C50.479509,21.5263328 45.3308841,19.7607431 40.66,21.34 C40.2027,21.4954105 39.6972269,21.3950492 39.3339875,21.0767211 C38.970748,20.7583929 38.804927,20.2704597 38.8989875,19.7967211 C38.993048,19.3229824 39.3327,18.9354105 39.79,18.78 C45.4446224,16.860887 51.6891036,18.8667088 55.1683997,23.7197746 C58.6476958,28.5728404 58.5427712,35.1307256 54.91,39.87 L58.38,45.58 C58.6173376,45.9676728 58.6436469,46.4487577 58.45,46.86 C58.902479,46.878456 59.3155624,47.1225508 59.55,47.51 L70,64.8 C70.1810766,65.0999421 70.2384513,65.4585334 70.16,65.8 L69.02,70.74 C68.8601253,71.3357505 68.3167854,71.7473716 67.7,71.74 L67.74,71.8 Z" id="Path"></path>
            <path d="M19.42,38.83 C10.9371239,38.8236427 3.4420873,33.3066303 0.915223237,25.2088414 C-1.61164083,17.1110524 1.41571866,8.3105926 8.38958457,3.4810562 C15.3634505,-1.3484802 24.6663866,-1.08698746 31.3579523,4.12666543 C38.0495179,9.34031833 40.5777503,18.2969382 37.6,26.24 C37.4213672,26.691941 37.0151961,27.0142522 36.5344873,27.0855222 C36.0537785,27.1567921 35.5715632,26.9661932 35.2694873,26.5855222 C34.9674113,26.2048511 34.8913672,25.691941 35.07,25.24 C37.7902177,17.9321158 35.0876649,9.71462761 28.5608108,5.44790387 C22.0339567,1.18118013 13.4225519,2.00252756 7.81995327,7.42614673 C2.21735467,12.8497659 1.11695003,21.4299765 5.16959175,28.0918719 C9.22223348,34.7537674 17.347679,37.7216015 24.74,35.24 C25.1973,35.0863758 25.7018201,35.1883878 26.0635126,35.507609 C26.425205,35.8268303 26.5891201,36.3147636 26.4935126,36.7876091 C26.397905,37.2604546 26.0573,37.6463758 25.6,37.8 C23.6094557,38.4760746 21.5222148,38.8239481 19.42,38.83 Z" id="Path"></path>
        </g>
    </g>
</svg>