<svg xmlns="http://www.w3.org/2000/svg" viewBox="0 0 17.61 21.99"><defs><style>.cls-1{fill:#fff;}</style></defs><title>pint</title><g id="Layer_2" data-name="Layer 2"><g id="Layer_1-2" data-name="Layer 1"><path class="cls-1" d="M7.37,14.36c-.3,1.15-.58,2.22-.87,3.29a11.76,11.76,0,0,1-2.31,4.17,1,1,0,0,1-.25.16,1.29,1.29,0,0,1-.17-.34A13.38,13.38,0,0,1,4.1,15.9c.48-1.78.89-3.58,1.31-5.38a1.29,1.29,0,0,0,0-.65,4.58,4.58,0,0,1,.08-3.4A2.43,2.43,0,0,1,7.25,4.94,1.65,1.65,0,0,1,9.34,6.58,6.52,6.52,0,0,1,9.1,8.29c-.21.84-.49,1.67-.76,2.49a2,2,0,0,0,.45,2.4,2.4,2.4,0,0,0,2.63.31A3.64,3.64,0,0,0,13.13,12a8.72,8.72,0,0,0,1.23-5.75,4.15,4.15,0,0,0-3-3.68A6.61,6.61,0,0,0,4.26,4,5.44,5.44,0,0,0,2.68,9.26a4.06,4.06,0,0,0,.69,1.37.92.92,0,0,1,.17.93c-.09.24-.13.5-.21.75-.14.46-.34.55-.78.36A3.9,3.9,0,0,1,.32,10,7.14,7.14,0,0,1,2.37,2.58,9.18,9.18,0,0,1,8.4,0a9.12,9.12,0,0,1,5.75,1.27,6.86,6.86,0,0,1,3.45,6.35,9,9,0,0,1-2.55,6.43,5.91,5.91,0,0,1-5.49,1.69A3.49,3.49,0,0,1,7.37,14.36Z"/></g></g></svg>