<svg xmlns="http://www.w3.org/2000/svg" viewBox="0 0 109.8 50.52"><defs><style>.cls-1{fill:#fff;}</style></defs><title>public-spaces</title><g id="Layer_2" data-name="Layer 2"><g id="Layer_1-2" data-name="Layer 1"><path class="cls-1" d="M12.55,41.38a6.19,6.19,0,0,1-3.13,1.47v-4.3a1,1,0,1,0-2.09,0v4.31A6.26,6.26,0,0,1,3.75,32.44a2.93,2.93,0,0,0,.53-3.39,4.54,4.54,0,0,1-.58-2.23,4.68,4.68,0,0,1,1.67-3.58,4.62,4.62,0,0,1,3-1.1,5,5,0,0,1,.85.07,4.55,4.55,0,0,1,2,.87,15.61,15.61,0,0,1,1-1.89,6.63,6.63,0,0,0-2.57-1,6.78,6.78,0,0,0-8,6.67,6.7,6.7,0,0,0,.84,3.25.88.88,0,0,1-.23.95,8.36,8.36,0,0,0-2.1,7.05A8.47,8.47,0,0,0,7.33,45v4.48a1,1,0,1,0,2.09,0V45a8.23,8.23,0,0,0,6.22-4.12,15.76,15.76,0,0,1-1.59-1.5,6.29,6.29,0,0,1-1.51,2"/><path class="cls-1" d="M34.68,18.43A10,10,0,0,0,27.53,3.89a10.08,10.08,0,0,0-11.85,9.92,10,10,0,0,0,1.25,4.82,2,2,0,0,1-.45,2.19,12.57,12.57,0,0,0-3.15,10.6A12.73,12.73,0,0,0,24.22,41.83l.49,0v7.61a1,1,0,1,0,2.1,0v-7.6A12.57,12.57,0,0,0,35,20.74a2,2,0,0,1-.27-2.31m-2,18.75a10.38,10.38,0,0,1-5.93,2.6V31.06l4-4a1,1,0,0,0-1.48-1.48L26.8,28.09V22.83a1,1,0,0,0-2.1,0V32.4l-2.52-2.52a1,1,0,1,0-1.48,1.48l4,4v4.4l-.24,0a10.6,10.6,0,0,1-9.07-8.67A10.49,10.49,0,0,1,18,22.24a4,4,0,0,0,.74-4.63,7.77,7.77,0,0,1-1-3.81,8,8,0,0,1,8-8,8.31,8.31,0,0,1,1.4.12,8,8,0,0,1,6.38,6.17,7.88,7.88,0,0,1-.73,5.34,4,4,0,0,0,.59,4.72,10.48,10.48,0,0,1-.69,15"/><path class="cls-1" d="M108.75,48h-7.33V46.42a5.75,5.75,0,0,0-5.74-5.74,7.63,7.63,0,0,1-5.43-2.25L76.5,24.69a9.7,9.7,0,0,0-6-2.82V14.14h0a1,1,0,0,0-.07-.37.88.88,0,0,0-.05-.1,1.06,1.06,0,0,0-.14-.21l-.1-.09-.09-.08L57.44,4.85V1a1,1,0,1,0-2.09,0v3.8L42.72,13.27a1.05,1.05,0,0,0-.42,1.18,1,1,0,0,0,.06.13V48.06H42a1,1,0,1,0,0,2.1h2.79a1,1,0,1,0,0-2.1h-.35V32.65H51V49.06a1,1,0,0,0,2.1,0v-3.5h6.63v3.5a1,1,0,0,0,2.09,0V32.65h6.63V48h-.35a1,1,0,1,0,0,2.09h2.79a1,1,0,1,0,0-2.09h-.35V32.75a7.61,7.61,0,0,1,4.38,2.14L87.27,47.24a9.7,9.7,0,0,0,6.89,2.86h14.59a1,1,0,1,0,0-2.09M50.28,30.55V24.27a2.45,2.45,0,0,0-2.45-2.45H44.46V15.19h24v6.63H65.07a2.45,2.45,0,0,0-2.44,2.45v6.28Zm14.44-6.28a.35.35,0,0,1,.35-.35h3.38v6.63H64.72ZM56.4,6.67,66,13.09H46.76ZM44.46,23.92h3.38a.35.35,0,0,1,.35.35v6.28H44.46Zm8.62,13.27h6.63v6.27H53.08Zm6.63-2.09H53.08V32.65h6.63ZM76.4,33.41a9.7,9.7,0,0,0-5.86-2.8V24A7.61,7.61,0,0,1,75,26.17L88.77,39.91a9.71,9.71,0,0,0,6.91,2.86,3.65,3.65,0,0,1,3.64,3.65V48H94.18a7.63,7.63,0,0,1-5.43-2.25Z"/></g></g></svg>