<svg xmlns="http://www.w3.org/2000/svg" xmlns:xlink="http://www.w3.org/1999/xlink" width="75" height="87" viewBox="0 0 75 87"><defs><path id="j5zva" d="M998.053 1493.55H983.68a8.5 8.5 0 0 0-1.42-3.798l9.35-10.382c.38-.422.38-1.107 0-1.529a.908.908 0 0 0-1.377 0l-9.35 10.381a6.858 6.858 0 0 0-3.42-1.576v-15.46c0-.598-.435-1.083-.973-1.083s-.974.485-.974 1.082v15.461a6.874 6.874 0 0 0-3.42 1.576l-9.034-10.03a.907.907 0 0 0-1.378 0 1.168 1.168 0 0 0 0 1.528l9.035 10.032a8.504 8.504 0 0 0-1.42 3.797h-14.013c-.54 0-.974.484-.974 1.081 0 .598.435 1.082.974 1.082H969.3a8.507 8.507 0 0 0 1.419 3.796l-8.452 9.385a1.168 1.168 0 0 0 0 1.53c.19.21.44.316.689.316a.926.926 0 0 0 .689-.317l8.45-9.384c.979.827 2.146 1.385 3.42 1.576v14.962c0 .597.437 1.082.975 1.082s.974-.485.974-1.082v-14.962a6.858 6.858 0 0 0 3.419-1.576l8.658 9.613c.19.212.44.317.689.317a.922.922 0 0 0 .689-.317c.38-.422.38-1.107 0-1.529l-8.658-9.613a8.504 8.504 0 0 0 1.419-3.797h14.373c.539 0 .975-.484.975-1.082 0-.597-.436-1.08-.975-1.08zm-21.562 6.982h-.002c-2.931 0-5.314-2.648-5.314-5.902s2.383-5.9 5.313-5.902l.002.001h.002c2.93 0 5.313 2.647 5.313 5.901s-2.384 5.902-5.314 5.902z"/><path id="j5zvb" d="M1013.577 1494.63c0 .042-.017.077-.02.117.003.04.02.076.02.117v2.917c0 2.435-1.784 4.416-3.977 4.416h-2.333a37.113 37.113 0 0 1-3.259 9.503c.361.517.584 1.155.584 1.857v5.017c0 .042-.017.077-.022.118.005.039.022.074.022.115v2.917c0 2.435-1.784 4.416-3.978 4.416h-4.67c-1.235 0-2.326-.64-3.056-1.623a30.538 30.538 0 0 1-3.33 1.978l4.003 10.617c.208.55-.026 1.185-.522 1.416a.908.908 0 0 1-.376.084c-.38 0-.742-.25-.899-.664l-4.005-10.624a28.859 28.859 0 0 1-4.956 1.595v2.633c0 2.434-1.785 4.415-3.978 4.415h-4.67c-2.194 0-3.979-1.981-3.979-4.415v-2.633a28.741 28.741 0 0 1-4.957-1.592l-4.004 10.62c-.156.415-.518.665-.899.665a.904.904 0 0 1-.375-.084c-.497-.231-.73-.865-.522-1.416l4.004-10.623a30.584 30.584 0 0 1-3.03-1.77c-.728.869-1.756 1.42-2.906 1.42h-4.672c-2.192 0-3.977-1.98-3.977-4.415v-2.917c0-.041.018-.076.021-.117-.003-.04-.02-.075-.02-.116v-5.017c0-.526.131-1.014.344-1.446a37.009 37.009 0 0 1-3.47-9.914h-1.883c-2.192 0-3.977-1.981-3.977-4.416v-2.917c0-.042.017-.077.022-.118-.004-.04-.02-.074-.02-.115v-5.017c0-1.681 1.23-3.048 2.744-3.048h3.217a36.87 36.87 0 0 1 3.771-10.17 4.713 4.713 0 0 1-.749-2.56v-2.916c0-.041.018-.077.021-.117-.003-.04-.02-.075-.02-.116v-5.017c0-1.681 1.231-3.048 2.745-3.048h7.135c.997 0 1.863.599 2.344 1.484a29.296 29.296 0 0 1 9.114-3.765v-4.648c0-1.68 1.232-3.048 2.745-3.048h7.135c1.514 0 2.746 1.368 2.746 3.048v4.649a29.302 29.302 0 0 1 9.46 3.98c.45-1.003 1.373-1.7 2.45-1.7h7.133c1.514 0 2.746 1.367 2.746 3.048v5.017c0 .042-.017.077-.022.117.005.04.022.075.022.116v2.917c0 1.118-.389 2.13-1.008 2.909a36.953 36.953 0 0 1 3.58 9.82h3.668c1.513 0 2.745 1.367 2.745 3.048zm-1.948-5.016c0-.488-.358-.885-.797-.885h-7.136c-.439 0-.797.397-.797.885v4.168h8.73zm-17.715-15.777c0 1.242.91 2.253 2.03 2.253h4.67c1.12 0 2.03-1.011 2.03-2.253v-1.835h-8.73zm.798-9.052c-.44 0-.798.397-.798.885v4.169h8.73v-4.17c0-.487-.358-.884-.798-.884zm-21.79-9.977c-.439 0-.797.397-.797.885v4.169h8.73v-4.17c0-.487-.358-.884-.798-.884zm-.797 9.053c0 1.242.91 2.253 2.03 2.253h4.67c1.12 0 2.03-1.011 2.03-2.253v-1.836h-8.73zm-20.54.924c-.44 0-.799.397-.799.885v4.169h8.73v-4.17c0-.487-.357-.884-.797-.884zm-.799 9.052c0 1.242.91 2.253 2.03 2.253h4.671c1.12 0 2.03-1.011 2.03-2.253v-1.835h-8.73zm-8.187 14.892c-.44 0-.797.397-.797.885v4.168h8.73v-4.168c0-.488-.358-.885-.798-.885zm-.798 9.052c0 1.242.911 2.253 2.03 2.253h4.671c1.12 0 2.03-1.011 2.03-2.253v-1.835h-8.73zm17.715 15.776c0-.488-.357-.885-.797-.885h-7.135c-.44 0-.798.397-.798.885v4.169h8.73zm-2.029 10.42c1.12 0 2.03-1.01 2.03-2.253v-1.835h-8.73v1.835c0 1.243.91 2.253 2.028 2.253zm23.368-.592c0-.49-.358-.886-.798-.886h-7.135c-.439 0-.797.397-.797.886v4.167h8.73zm0 6.33h-8.73v1.837c0 1.24.91 2.252 2.03 2.252h4.67c1.12 0 2.03-1.011 2.03-2.252zm13.857-17.043c-.44 0-.798.397-.798.885v4.169h8.73v-4.17c0-.487-.358-.884-.798-.884zm7.932 7.217h-8.73v1.835c0 1.243.91 2.253 2.03 2.253h4.67c1.12 0 2.03-1.01 2.03-2.253zm-.314-9.326a34.76 34.76 0 0 0 2.918-8.366h-.32c-2.193 0-3.977-1.981-3.977-4.416v-2.917c0-.042.017-.077.021-.117-.004-.041-.02-.075-.02-.116v-5.017c0-1.681 1.231-3.048 2.744-3.048h1.468a34.594 34.594 0 0 0-3.19-8.596 3.58 3.58 0 0 1-1.36.283h-4.67c-2.194 0-3.978-1.981-3.978-4.416v-2.917c0-.041.017-.077.021-.118-.004-.04-.02-.074-.02-.115v-4.035c-2.842-1.943-5.917-3.322-9.164-4.104v1.313c0 2.434-1.785 4.416-3.978 4.416h-4.67c-2.194 0-3.979-1.982-3.979-4.416v-1.315c-3.073.74-5.995 2.019-8.712 3.803v4.338c0 .04-.017.076-.02.116.003.04.02.076.02.117v2.917c0 2.435-1.784 4.416-3.977 4.416h-4.672a3.628 3.628 0 0 1-1.72-.451 34.584 34.584 0 0 0-3.279 8.764h1.918c1.514 0 2.746 1.367 2.746 3.048v5.017c0 .04-.018.077-.022.117.004.04.022.075.022.116v2.917c0 2.435-1.785 4.416-3.978 4.416h-.769a34.681 34.681 0 0 0 2.98 8.484 2.48 2.48 0 0 1 .871-.172h7.135c1.514 0 2.745 1.368 2.745 3.048v5.017c0 .042-.017.077-.02.117.003.04.02.075.02.116v2.917c0 .38-.057.743-.138 1.095a28.74 28.74 0 0 0 2.85 1.673l6.888-18.27c.207-.55.777-.81 1.274-.58.496.232.73.866.522 1.416l-6.888 18.272a27.26 27.26 0 0 0 4.205 1.384v-3.33c0-1.681 1.232-3.048 2.745-3.048h7.135c1.514 0 2.746 1.367 2.746 3.049v3.328a27.068 27.068 0 0 0 4.203-1.386l-6.899-18.3c-.207-.552.026-1.185.522-1.415.497-.232 1.067.028 1.275.579l6.901 18.306a28.633 28.633 0 0 0 3.237-1.941 4.839 4.839 0 0 1-.076-.832v-2.917c0-.041.017-.077.021-.117-.004-.04-.02-.075-.02-.116v-5.017c0-1.68 1.231-3.048 2.745-3.048h7.134a2.5 2.5 0 0 1 .484.054zm9.3-14.617h-8.73v1.835c0 1.242.91 2.253 2.028 2.253h4.672c1.118 0 2.03-1.011 2.03-2.253z"/><path id="j5zvc" d="M976.49 1490.556c-2.023 0-3.67 1.828-3.67 4.074 0 2.247 1.647 4.075 3.67 4.075 2.023 0 3.669-1.828 3.669-4.075 0-2.246-1.646-4.074-3.67-4.074zm0 5.986c-.95 0-1.722-.858-1.722-1.912 0-1.054.773-1.911 1.722-1.911s1.72.857 1.72 1.91c0 1.055-.771 1.913-1.72 1.913z"/></defs><g><g transform="translate(-939 -1452)"><use fill="#b89d7f" xlink:href="#j5zva"/></g><g transform="translate(-939 -1452)"><use fill="#b89d7f" xlink:href="#j5zvb"/></g><g transform="translate(-939 -1452)"><use fill="#b89d7f" xlink:href="#j5zvc"/></g></g></svg>