<svg xmlns="http://www.w3.org/2000/svg" xmlns:xlink="http://www.w3.org/1999/xlink" width="62" height="67" viewBox="0 0 62 67"><defs><path id="3f7ia" d="M835.024 1525.117c.054.971-.3 1.911-.995 2.647a3.873 3.873 0 0 1-2.796 1.215h-54.018a3.877 3.877 0 0 1-2.802-1.214c-.693-.734-1.044-1.674-.989-2.648l2.56-45.946c.114-2.086 1.778-3.723 3.79-3.723h12.448v-1.17c0-6.617 5.384-12 12.002-12 6.616 0 12 5.383 12 12v1.17h12.45c2.01 0 3.675 1.637 3.791 3.725zm-40.335-49.669h19.068v-1.17c0-5.257-4.276-9.534-9.533-9.534-5.259 0-9.535 4.277-9.535 9.533zm37.548 50.62c.13-.139.345-.427.324-.814L830 1479.31c-.039-.687-.545-1.395-1.328-1.395h-12.449v4.4a3.154 3.154 0 0 1 2.26 3.015 3.164 3.164 0 0 1-6.327 0 3.15 3.15 0 0 1 1.6-2.735v-4.68H794.69v4.68a3.149 3.149 0 0 1 1.6 2.735 3.163 3.163 0 0 1-6.326 0c0-1.43.956-2.625 2.259-3.016v-4.399h-12.45c-.712 0-1.282.6-1.327 1.393l-2.56 45.947c-.02.392.192.68.32.814.262.277.639.442 1.009.442h54.018c.365 0 .74-.165 1.004-.444z"/></defs><g><g transform="translate(-773 -1462)"><use fill="#b89d7f" xlink:href="#3f7ia"/></g></g></svg>