<svg xmlns="http://www.w3.org/2000/svg" viewBox="0 0 65.39 65.39"><defs><style>.cls-1{fill:#927854;}</style></defs><title>self-covering</title><g id="Layer_2" data-name="Layer 2"><g id="Layer_1-2" data-name="Layer 1"><path class="cls-1" d="M59.55,65.39H5.84a1.17,1.17,0,0,1-1.17-1.17V26.86a1.17,1.17,0,0,1,1.17-1.17H59.55a1.17,1.17,0,0,1,1.17,1.17V64.22A1.17,1.17,0,0,1,59.55,65.39ZM7,63.05H58.38V28H7Z"/><path class="cls-1" d="M54.88,28H10.51a1.17,1.17,0,0,1-1.17-1.17v-7a1.17,1.17,0,0,1,1.17-1.17H54.88a1.17,1.17,0,0,1,1.17,1.17v7A1.17,1.17,0,0,1,54.88,28Zm-43.2-2.34h42V21h-42Z"/><path class="cls-1" d="M32.7,21a1.17,1.17,0,0,1-1.17-1.17V1.17a1.17,1.17,0,1,1,2.34,0V19.85A1.17,1.17,0,0,1,32.7,21Z"/><path class="cls-1" d="M38.53,11.68H32.7a1.17,1.17,0,1,1,0-2.34h4.67V4.68H32.7a1.17,1.17,0,1,1,0-2.34h5.84A1.17,1.17,0,0,1,39.7,3.51v7A1.17,1.17,0,0,1,38.53,11.68Z"/><path class="cls-1" d="M45.54,14h-7a1.17,1.17,0,0,1-1.17-1.17v-7a1.17,1.17,0,0,1,1.17-1.17h7a1.17,1.17,0,0,1,1,1.82l-1.9,2.85,1.9,2.85a1.17,1.17,0,0,1-1,1.82ZM39.7,11.68h3.65L42.23,10a1.17,1.17,0,0,1,0-1.3L43.35,7H39.7Z"/><path class="cls-1" d="M64.22,65.39H1.17a1.17,1.17,0,0,1,0-2.34H64.22a1.17,1.17,0,0,1,0,2.34Z"/><path class="cls-1" d="M36.2,65.39h-7A1.17,1.17,0,0,1,28,64.22V38.53a1.17,1.17,0,0,1,1.17-1.17h7a1.17,1.17,0,0,1,1.17,1.17V64.22A1.17,1.17,0,0,1,36.2,65.39Zm-5.84-2.34H35V39.7H30.36Z"/><path class="cls-1" d="M19.85,65.39h-7a1.17,1.17,0,0,1-1.17-1.17V38.53a1.17,1.17,0,0,1,1.17-1.17h7A1.17,1.17,0,0,1,21,38.53V64.22A1.17,1.17,0,0,1,19.85,65.39ZM14,63.05h4.67V39.7H14Z"/><path class="cls-1" d="M52.55,65.39h-7a1.17,1.17,0,0,1-1.17-1.17V38.53a1.17,1.17,0,0,1,1.17-1.17h7a1.17,1.17,0,0,1,1.17,1.17V64.22A1.17,1.17,0,0,1,52.55,65.39Zm-5.84-2.34h4.67V39.7H46.71Z"/></g></g></svg>