<svg xmlns="http://www.w3.org/2000/svg" viewBox="0 0 16.99 18.39"><defs><style>.cls-1{fill:#0e283c;}</style></defs><title>shopping-bag</title><g id="Layer_2" data-name="Layer 2"><g id="Layer_1-2" data-name="Layer 1"><path class="cls-1" d="M16.28,4.66a1.07,1.07,0,0,0-1-1H11.8V3.31a3.31,3.31,0,0,0-6.62,0v.32H1.75a1.07,1.07,0,0,0-1,1L0,17.32a1,1,0,0,0,.27.73,1.07,1.07,0,0,0,.77.33H15.94a1.07,1.07,0,0,0,.77-.33,1,1,0,0,0,.27-.73ZM5.86,3.31a2.63,2.63,0,0,1,5.26,0v.32H5.86ZM16.22,17.59a.39.39,0,0,1-.28.12H1a.39.39,0,0,1-.28-.12.31.31,0,0,1-.09-.22L1.39,4.7a.38.38,0,0,1,.37-.38H5.18V5.52a.87.87,0,1,0,.68.08V4.31h5.26V5.6a.87.87,0,1,0,.68-.08V4.31h3.43a.39.39,0,0,1,.37.38l.71,12.67A.31.31,0,0,1,16.22,17.59Z"/></g></g></svg>