<svg xmlns="http://www.w3.org/2000/svg" viewBox="0 0 40.18 56.26"><defs><style>.cls-1{fill:none;stroke:#fff;stroke-miterlimit:10;stroke-width:2px;}</style></defs><title>smart-city-top</title><g id="Layer_2" data-name="Layer 2"><g id="Layer_1-2" data-name="Layer 1"><path class="cls-1" d="M20.81,56.26V55.14a1.68,1.68,0,0,0-1.68-1.68H11.2a1.68,1.68,0,0,1,0-3.35H29a1.68,1.68,0,0,0,0-3.35H11.06a1.67,1.67,0,0,1,0-3.35H29a1.68,1.68,0,0,0,1.67-1.68v-.16A1.68,1.68,0,0,0,29,39.9H11.2a1.68,1.68,0,0,1-1.67-1.67V36.76a1.45,1.45,0,0,0-.59-1.18A19.09,19.09,0,1,1,30.65,36"/><path class="cls-1" d="M19.76,9.8,13.45,22.29a.57.57,0,0,0,.51.82h4.81a.57.57,0,0,1,.56.66L17.6,34.22a.57.57,0,0,0,1.07.35l8-15.66a.57.57,0,0,0-.51-.83H21.39a.57.57,0,0,1-.56-.66L22.58,6.68a.57.57,0,0,0-1.07-.35L20.4,8.53Z"/></g></g></svg>