<svg xmlns="http://www.w3.org/2000/svg" viewBox="0 0 64.63 51.93"><defs><style>.cls-1{fill:#fff;}</style></defs><title>spacious-site</title><g id="Layer_2" data-name="Layer 2"><g id="Layer_1-2" data-name="Layer 1"><path class="cls-1" d="M64.13,29.9l-18-11a1.13,1.13,0,0,0-1.47.31,1.07,1.07,0,0,0,.2,1.39L61.57,30.79,55.67,34.4a1,1,0,1,0,1.1,1.79l7.37-4.5a1,1,0,0,0,0-1.79"/><path class="cls-1" d="M.5,29.9l18-11a1.13,1.13,0,0,1,1.47.31,1.07,1.07,0,0,1-.2,1.39L3.06,30.79,9,34.4a1,1,0,1,1-1.1,1.79L.5,31.69a1,1,0,0,1,0-1.79"/><path class="cls-1" d="M31.82,33.22a.54.54,0,0,0,.93,0L42.11,17a11.22,11.22,0,0,0,0-11.34,11.34,11.34,0,0,0-19.65,0,11.23,11.23,0,0,0,0,11.34Zm-8.42-27A10.26,10.26,0,1,1,41.17,16.47l-8.89,15.4-8.89-15.4a10.16,10.16,0,0,1,0-10.26"/><path class="cls-1" d="M32.28,18.85a7.67,7.67,0,1,0-7.67-7.67,7.68,7.68,0,0,0,7.67,7.67m0-14.3a6.63,6.63,0,1,1-6.63,6.63,6.64,6.64,0,0,1,6.63-6.63"/><path class="cls-1" d="M53.63,38.08a.66.66,0,0,0,0-.08v0l0-.09,0-.07,0,0,0-.08,0-.07v0l0-.07-.05-.07,0,0-.06,0-.07-.06,0,0-.07,0-.07,0,0,0-.08,0-.06,0h-.08l-5.38-1.05a1,1,0,1,0-.4,2.06l2.73.54-17.62,11-17.62-11,2.73-.54a1,1,0,1,0-.4-2.06l-5.38,1.05h-.08l-.06,0-.08,0,0,0-.07,0-.07,0,0,0-.07.06-.06,0,0,0-.05.07,0,.07v0l0,.07,0,.08,0,0a.64.64,0,0,0,0,.07l0,.09v0s0,.05,0,.08a.83.83,0,0,0,0,.09s0,0,0,0a.73.73,0,0,0,0,.08s0,0,0,.06v.08L12.1,43.7a1,1,0,0,0,1,.77,1.08,1.08,0,0,0,.28,0,1,1,0,0,0,.73-1.29l-.75-2.71L31.54,51.77a1.06,1.06,0,0,0,.55.16h.06a1.06,1.06,0,0,0,.55-.16L50.87,40.43l-.75,2.71a1,1,0,0,0,.73,1.29,1.08,1.08,0,0,0,.28,0,1,1,0,0,0,1-.77l1.46-5.27v-.08s0,0,0-.06a.7.7,0,0,0,0-.08s0,0,0,0a.85.85,0,0,0,0-.09"/></g></g></svg>