<svg xmlns="http://www.w3.org/2000/svg" viewBox="0 0 66.99 66.15"><defs><style>.cls-1{fill:#fff;}.cls-2,.cls-3{fill:none;stroke:#a39883;stroke-linecap:round;stroke-miterlimit:10;}.cls-2{stroke-width:1.5px;}</style></defs><title>sponcors</title><g id="Layer_2" data-name="Layer 2"><g id="Layer_1-2" data-name="Layer 1"><path class="cls-1" d="M53.9,17.43c0-.33,0-.67,0-1A16.29,16.29,0,0,0,47.21,4.38a13.45,13.45,0,0,0-8.83-3.19h-.86a16.25,16.25,0,0,0-9.79,3.25l-.09.05A16.19,16.19,0,0,0,16.38,0,16.38,16.38,0,0,0,6.61,29.53a4.56,4.56,0,0,0-.15.94c0,.08,0,.17,0,.26s0,.17,0,.26a4.48,4.48,0,0,0,1.31,2.93l.25.25A4.47,4.47,0,0,0,11,35.47h.51a4.51,4.51,0,0,0,1.31,3.43l.25.25a4.49,4.49,0,0,0,3.19,1.32h.25a4.61,4.61,0,0,0,0,.51,4.5,4.5,0,0,0,1.31,2.93l.25.25A4.48,4.48,0,0,0,21,45.48h.51c0,.08,0,.16,0,.24s0,.17,0,.26a4.48,4.48,0,0,0,1.31,2.93l.25.25A4.48,4.48,0,0,0,26,50.49h.52a4.48,4.48,0,0,0,2.93-1.31l4.24-4.24a4.5,4.5,0,0,0,.95-1.39h.09a4.67,4.67,0,0,0,4.67-4.67c0-.13,0-.25,0-.37h.37a4.67,4.67,0,0,0,4.67-4.67c0-.12,0-.25,0-.37l.37,0a4.67,4.67,0,0,0,4.67-4.66l.22-.25a16.41,16.41,0,0,0,4.19-9.74c0-.4.06-.8.06-1.26Zm-7.45,9.69a2.39,2.39,0,1,1-3.38,3.38l-4.84-4.84-.81-.81L36.6,24,31.76,19.2l0,0L31,20l0,0-.81.81,5,5,.81.81.81.81,4.64,4.64A2.39,2.39,0,0,1,38,35.53l-4.24-4.24L33,30.48l-.81-.81-5.44-5.44,0,0-.77.77,0,0-.77.77,0,0,4.4,4.4,2,2,.81.81,4,4a2.39,2.39,0,0,1-1.44,4.07,4.48,4.48,0,0,0-1.29-2.69l-.25-.25A4.47,4.47,0,0,0,30.52,37,4.76,4.76,0,0,0,30,37s0,0,0,0v0c0-.08,0-.16,0-.24s0-.17,0-.26a4.47,4.47,0,0,0-1.31-2.93l-.25-.25A4.46,4.46,0,0,0,25.52,32,4.72,4.72,0,0,0,25,32s0,0,0-.05,0-.16,0-.24a4.51,4.51,0,0,0-.19-1.3,4.43,4.43,0,0,0-.47-1.05,4.56,4.56,0,0,0-.66-.83l-.06-.06-.19-.19A4,4,0,0,0,23,28,4.59,4.59,0,0,0,19.95,27v0a4.58,4.58,0,0,0,0-.52,4.49,4.49,0,0,0-1.31-2.93l-.25-.25A4.46,4.46,0,0,0,15.51,22a4.54,4.54,0,0,0-.62,0A4.46,4.46,0,0,0,12,23.29L7.77,27.53h0A14.1,14.1,0,0,1,16.38,2.28a13.93,13.93,0,0,1,9.46,3.65L14.07,17.82l1.34.72a13.35,13.35,0,0,0,6.28,1.8,8.94,8.94,0,0,0,1.62-.14l.58-.13a7.93,7.93,0,0,0,1.19-.41,7.32,7.32,0,0,0,2.7-2l2.32-2.25,2.32-2.25,2.69,2.66h0l.81-.81,0,0,0,0-.77.77,5.25,5.25.81.81.87.87ZM14.39,37.3a2.23,2.23,0,0,1-.16-3l.17-.16,1.41-1.41L17,31.61l1.25-1.25.44-.44.16-.17a2.22,2.22,0,0,1,2.55-.18l.06,0,0,0a2.19,2.19,0,0,1,.41.32l.25.25a2.16,2.16,0,0,1,.23.27,2.21,2.21,0,0,1,.41,1.07,2.31,2.31,0,0,1,0,.24s0,.08,0,.11A2.2,2.2,0,0,1,22.26,33l-.07.1-.15.17L17.8,37.55l-.17.15a2.29,2.29,0,0,1-3-.15ZM9.64,32.55l-.25-.25a2.2,2.2,0,0,1-.65-1.42c0-.05,0-.1,0-.15a2.21,2.21,0,0,1,.24-1,2.24,2.24,0,0,1,.41-.56l.34-.34,3.9-3.9a2.23,2.23,0,0,1,3.15,0l.25.25a2.23,2.23,0,0,1,.15,3l-.15.17-2.1,2.1-1,1-1,1-.15.15-.17.15a2.29,2.29,0,0,1-3-.15m10,10-.25-.25a2.23,2.23,0,0,1-.16-3l.16-.17,4.24-4.24.17-.16.1-.07a2.22,2.22,0,0,1,1.19-.42h.12a2.22,2.22,0,0,1,1.57.65l.25.25a2.21,2.21,0,0,1,.65,1.57s0,.08,0,.11a2.2,2.2,0,0,1-.42,1.19l-.07.1-.15.17L22.8,42.56l-.17.15a2.29,2.29,0,0,1-3-.15m5,5-.25-.25a2.23,2.23,0,0,1-.15-3l.15-.17,4.24-4.24.17-.15.1-.07a2.2,2.2,0,0,1,1.19-.42h.11a2.22,2.22,0,0,1,1.58.65l.25.25a2.23,2.23,0,0,1,0,3.15l-4.24,4.24a2.28,2.28,0,0,1-3.15,0M51.57,18.65a13.94,13.94,0,0,1-2.84,7.48L43.59,21,36.76,14.2l0,0L32.44,10l-2.08,2L26.14,16.1l-.12.14,0,0a5.61,5.61,0,0,1-4.3,1.79,9.88,9.88,0,0,1-3.8-.86L28,7l.22-.15L29,6.37l.1-.07a14,14,0,0,1,8.5-2.82h.27a11.43,11.43,0,0,1,8,2.7,14.06,14.06,0,0,1,5.77,10.43c0,.29,0,.57,0,.83v.18c0,.34,0,.68,0,1"/><path class="cls-1" d="M66.24,52.32A13.08,13.08,0,1,1,53.16,39.25,13.07,13.07,0,0,1,66.24,52.32"/><circle class="cls-2" cx="53.16" cy="52.32" r="13.07"/><path class="cls-1" d="M63.15,52.32a10,10,0,1,1-10-10,10,10,0,0,1,10,10"/><circle class="cls-2" cx="53.16" cy="52.32" r="9.99"/><line class="cls-1" x1="53.17" y1="42.34" x2="53.17" y2="39.25"/><line class="cls-2" x1="53.17" y1="42.34" x2="53.17" y2="39.25"/><line class="cls-1" x1="53.17" y1="62.31" x2="53.17" y2="65.4"/><line class="cls-2" x1="53.17" y1="62.31" x2="53.17" y2="65.4"/><line class="cls-1" x1="58.16" y1="60.98" x2="59.7" y2="63.65"/><line class="cls-2" x1="58.16" y1="60.98" x2="59.7" y2="63.65"/><line class="cls-1" x1="61.82" y1="57.32" x2="64.49" y2="58.86"/><line class="cls-2" x1="61.82" y1="57.32" x2="64.49" y2="58.86"/><line class="cls-1" x1="63.15" y1="52.32" x2="66.24" y2="52.32"/><line class="cls-2" x1="63.15" y1="52.32" x2="66.24" y2="52.32"/><line class="cls-1" x1="61.82" y1="47.33" x2="64.49" y2="45.79"/><line class="cls-2" x1="61.82" y1="47.33" x2="64.49" y2="45.79"/><line class="cls-1" x1="58.16" y1="43.67" x2="59.7" y2="41"/><line class="cls-2" x1="58.16" y1="43.67" x2="59.7" y2="41"/><line class="cls-1" x1="48.17" y1="43.67" x2="46.63" y2="41"/><line class="cls-2" x1="48.17" y1="43.67" x2="46.63" y2="41"/><line class="cls-1" x1="44.51" y1="47.33" x2="41.84" y2="45.79"/><line class="cls-2" x1="44.51" y1="47.33" x2="41.84" y2="45.79"/><line class="cls-1" x1="43.18" y1="52.32" x2="40.09" y2="52.32"/><line class="cls-2" x1="43.18" y1="52.32" x2="40.09" y2="52.32"/><line class="cls-1" x1="44.51" y1="57.32" x2="41.84" y2="58.86"/><line class="cls-2" x1="44.51" y1="57.32" x2="41.84" y2="58.86"/><line class="cls-1" x1="48.17" y1="60.98" x2="46.63" y2="63.65"/><line class="cls-2" x1="48.17" y1="60.98" x2="46.63" y2="63.65"/><path class="cls-1" d="M47,52.43a1.3,1.3,0,0,0-.26,2.39,2.18,2.18,0,0,0,1,.22,2.56,2.56,0,0,0,1.2-.21,2,2,0,0,0,1-1.35,4,4,0,0,0,0-1.71c-.12-.56-.3-1.11-.41-1.68a3.72,3.72,0,0,1-.06-1.39,1.84,1.84,0,0,1,.68-1.18"/><path class="cls-3" d="M47,52.43a1.3,1.3,0,0,0-.26,2.39,2.18,2.18,0,0,0,1,.22,2.56,2.56,0,0,0,1.2-.21,2,2,0,0,0,1-1.35,4,4,0,0,0,0-1.71c-.12-.56-.3-1.11-.41-1.68a3.72,3.72,0,0,1-.06-1.39,1.84,1.84,0,0,1,.68-1.18"/><path class="cls-1" d="M51.74,49.05a29.85,29.85,0,0,0,.4,5,1.29,1.29,0,0,0,1.18.76h2.18c.35-.45.87-1.13.75-1.69a2,2,0,0,0-1-1.33"/><path class="cls-3" d="M51.14,49.05a45.16,45.16,0,0,0,.26,5,.92.92,0,0,0,.77.76H53.6a3.26,3.26,0,0,0,.49-1.69,2.13,2.13,0,0,0-.65-1.33"/><path class="cls-1" d="M58.18,52.23a6.4,6.4,0,0,1,.94,1.37,2.53,2.53,0,0,1,.23,1.62,2.35,2.35,0,0,1-1.17,1.47,4,4,0,0,1-1.86.45"/><path class="cls-3" d="M58.18,52.23a6.4,6.4,0,0,1,.94,1.37,2.53,2.53,0,0,1,.23,1.62,2.35,2.35,0,0,1-1.17,1.47,4,4,0,0,1-1.86.45"/><path class="cls-1" d="M53.56,56.28a.11.11,0,1,1-.11-.11.11.11,0,0,1,.11.11"/><circle class="cls-3" cx="53.45" cy="56.28" r="0.11"/><path class="cls-1" d="M55,56.28a.11.11,0,1,1-.11-.11.11.11,0,0,1,.11.11"/><circle class="cls-3" cx="54.94" cy="56.28" r="0.11"/></g></g></svg>