<svg xmlns="http://www.w3.org/2000/svg" viewBox="0 0 49.16 52.66"><defs><style>.cls-1{fill:#fff;}</style></defs><title>strategic-location</title><g id="Layer_2" data-name="Layer 2"><g id="Layer_1-2" data-name="Layer 1"><path class="cls-1" d="M23.92,46.76a.76.76,0,0,0,1.31,0L38.41,23.95a15.8,15.8,0,0,0,0-16A16,16,0,0,0,10.76,8a15.8,15.8,0,0,0,0,16Zm-11.85-38a14.45,14.45,0,0,1,25,0,14.3,14.3,0,0,1,0,14.45L24.58,44.86,12.07,23.19a14.3,14.3,0,0,1,0-14.45"/><path class="cls-1" d="M24.58,26.88A11.15,11.15,0,1,0,13.44,15.73,11.16,11.16,0,0,0,24.58,26.88m0-20.78A9.63,9.63,0,1,1,15,15.73,9.64,9.64,0,0,1,24.58,6.1"/><path class="cls-1" d="M33.15,39.51A.76.76,0,0,0,33,41c9.51.92,14.64,3.19,14.64,4.87,0,2-7.58,5-21.29,5.24l-1.77,0-1.77,0C9.1,50.87,1.52,47.86,1.52,45.88c0-1.68,5.13-4,14.64-4.87A.76.76,0,1,0,16,39.51c-3.76.36-16,1.89-16,6.38s11.81,6.55,22.78,6.76l1.8,0,1.8,0c11-.2,22.78-2.41,22.78-6.76s-12.26-6-16-6.38"/></g></g></svg>