<svg xmlns="http://www.w3.org/2000/svg" viewBox="0 0 75.57 65.95"><defs><style>.cls-1{fill:#927854;}</style></defs><title>sustainability_1</title><g id="Layer_2" data-name="Layer 2"><g id="Layer_1-2" data-name="Layer 1"><path class="cls-1" d="M38.68,65.95a10.59,10.59,0,0,1-2.57-.32L17,60.86a8.2,8.2,0,0,0-3.76,0L1.42,63.45a1.17,1.17,0,1,1-.51-2.28l11.87-2.64a10.58,10.58,0,0,1,4.83.06l19.07,4.77a8.12,8.12,0,0,0,6.14-.89l30-17.7A6.32,6.32,0,0,0,65.3,42.7L53,47.81a1.17,1.17,0,1,1-.9-2.16L64.4,40.54a8.66,8.66,0,0,1,11,4.11A1.17,1.17,0,0,1,75,46.18L44,64.48A10.46,10.46,0,0,1,38.68,65.95Z"/><path class="cls-1" d="M48.69,52.57H29.22a1.17,1.17,0,1,1,0-2.34H48.69a2.72,2.72,0,0,0,0-5.45H37a1.18,1.18,0,0,1-.34,0L25.84,41.48a17.56,17.56,0,0,0-9-.29L1.43,44.75a1.17,1.17,0,0,1-.53-2.28l15.43-3.56a19.91,19.91,0,0,1,10.18.33l10.67,3.2H48.69a5.07,5.07,0,0,1,0,10.13Z"/><path class="cls-1" d="M54.22,23.54q-.73,0-1.5-.06a1.17,1.17,0,1,1,.17-2.33c3.83.28,6.71-.63,8.56-2.72,2.61-2.94,3.33-8.33,2.1-15.65-1.17.43-2.39.83-3.67,1.24C55,5.62,49.86,7.27,48.1,11.1,47,13.58,47.26,16.82,49,21a1.17,1.17,0,0,1-2.16.9c-2-4.83-2.31-8.69-.88-11.8,2.19-4.76,8-6.65,13.18-8.32C60.89,1.24,62.52.7,64,.09a1.17,1.17,0,0,1,1.6.85c1.74,8.88.93,15.29-2.39,19C61.1,22.34,58.08,23.54,54.22,23.54Z"/><path class="cls-1" d="M43.24,31.89a1.19,1.19,0,0,1-.31,0,1.17,1.17,0,0,1-.82-1.44C44.79,20.74,53.17,12.47,59.25,7.1A1.17,1.17,0,0,1,60.8,8.85c-3.37,3-13.63,12.06-16.43,22.19A1.17,1.17,0,0,1,43.24,31.89Z"/><path class="cls-1" d="M61.17,39.25a1.17,1.17,0,0,1-.55-.14l-7.1-3.75a22,22,0,0,0-20.58,0L31.83,36l-2.52,1.34a1.17,1.17,0,0,1-1.09-2.07l2.51-1.33,1.11-.6a24.29,24.29,0,0,1,22.77,0L61.72,37a1.17,1.17,0,0,1-.55,2.21Z"/><path class="cls-1" d="M43.24,32.32a1.17,1.17,0,0,1-1.16-1l-.52-4.14a13.06,13.06,0,0,0-8.1-10.5,1.17,1.17,0,0,1,.87-2.17,15.4,15.4,0,0,1,9.56,12.38L44.4,31a1.17,1.17,0,0,1-1,1.31Z"/></g></g></svg>