<svg xmlns="http://www.w3.org/2000/svg" xmlns:xlink="http://www.w3.org/1999/xlink" width="37" height="65" viewBox="0 0 37 65"><defs><path id="uxvva" d="M1311.772 1527.552c-1.009 0-1.918-.429-2.628-1.24-2.583-2.949-2.934-11.634-1.044-25.81.62-4.635.312-6.283.066-7.609l-.059-.317c-.04-.155-.392-.588-.675-.936-1.263-1.55-3.614-4.44-3.614-10.747h2.105c0 5.56 1.966 7.976 3.141 9.42.556.682.995 1.221 1.115 1.891l.056.305c.273 1.472.614 3.304-.049 8.272-2.457 18.428-.44 23.024.541 24.146.316.36.638.521 1.045.521.407 0 .73-.16 1.045-.52.981-1.123 2.998-5.719.541-24.148-.663-4.966-.322-6.798-.049-8.27l.056-.306c.121-.675.598-1.292 1.26-2.146 1.376-1.784 3.46-4.479 3.46-9.165h2.104c0 5.404-2.442 8.564-3.9 10.451-.357.462-.8 1.036-.854 1.24l-.057.31c-.246 1.325-.552 2.974.066 7.608 1.89 14.176 1.54 22.861-1.044 25.81-.71.811-1.619 1.24-2.628 1.24z"/><path id="uxvvb" d="M1332.448 1527.552c-4.06 0-4.166-5.93-4.299-13.439-.117-6.698-.01-14.893-.008-14.975 0-2.123-.017-13.159-.03-22.152-.01-6.184-.018-11.402-.018-12.096 0-.58.407-1.06.988-1.168 1.4-.259 5.332 2.28 8.063 9.342 2.843 7.35 2.893 19.431 1.842 24.973-.277 1.455-1.516 2.111-3.693 1.95a9.17 9.17 0 0 0 .068 1.314c.07.541.16 1.203.261 1.944 1.284 9.384 2.404 19.683-.58 23.103-.686.788-1.583 1.204-2.593 1.204zm-2.249-61.244c.002 2.083.01 6.116.016 10.675.014 8.994.03 20.032.03 22.17-.001.095-.11 8.26.009 14.922.099 5.591.202 11.373 2.195 11.373.405 0 .716-.15 1.008-.484 2.604-2.985.835-15.913.08-21.434-.103-.748-.194-1.416-.266-1.98-.244-2.212.082-2.9.434-3.286a1.323 1.323 0 0 1 1.022-.443c.081.002.217.015.39.035 1.555.178 1.778-.089 1.801-.212.884-4.653 1.058-16.593-1.737-23.82-1.73-4.474-3.793-6.633-4.982-7.516z"/><path id="uxvvc" d="M1303.819 1480.896l-.04-14.562 2.105-.005.039 14.562z"/><path id="uxvvd" d="M1308.574 1480.896l-.039-14.562 2.104-.005.039 14.562z"/><path id="uxvve" d="M1313.33 1480.896l-.04-14.562 2.104-.005.04 14.561z"/><path id="uxvvf" d="M1318.084 1480.896l-.039-14.562 2.104-.005.04 14.562z"/></defs><g><g transform="translate(-1303 -1463)"><use fill="#b89d7f" xlink:href="#uxvva"/></g><g transform="translate(-1303 -1463)"><use fill="#b89d7f" xlink:href="#uxvvb"/></g><g transform="translate(-1303 -1463)"><use fill="#b89d7f" xlink:href="#uxvvc"/></g><g transform="translate(-1303 -1463)"><use fill="#b89d7f" xlink:href="#uxvvd"/></g><g transform="translate(-1303 -1463)"><use fill="#b89d7f" xlink:href="#uxvve"/></g><g transform="translate(-1303 -1463)"><use fill="#b89d7f" xlink:href="#uxvvf"/></g></g></svg>