<svg xmlns="http://www.w3.org/2000/svg" viewBox="0 0 15.33 18.71"><defs><style>.cls-1{fill:#0e283c;}</style></defs><title>trees</title><g id="Layer_2" data-name="Layer 2"><g id="Layer_1-2" data-name="Layer 1"><path class="cls-1" d="M5,15.05a2.47,2.47,0,0,1-1.25.59V13.92a.42.42,0,1,0-.84,0v1.72A2.5,2.5,0,0,1,1.5,11.48a1.17,1.17,0,0,0,.21-1.35,1.82,1.82,0,0,1-.23-.89A1.87,1.87,0,0,1,2.14,7.8a1.85,1.85,0,0,1,1.2-.44l.34,0a1.82,1.82,0,0,1,.79.35A6.11,6.11,0,0,1,4.85,7a2.65,2.65,0,0,0-1-.42A2.71,2.71,0,0,0,.64,9.23,2.68,2.68,0,0,0,1,10.53a.35.35,0,0,1-.09.38A3.34,3.34,0,0,0,0,13.73,3.39,3.39,0,0,0,2.93,16.5v1.79a.42.42,0,1,0,.84,0v-1.8a3.29,3.29,0,0,0,2.49-1.65,6.3,6.3,0,0,1-.63-.6A2.51,2.51,0,0,1,5,15.05Z"/><path class="cls-1" d="M13.87,5.88A4,4,0,0,0,11,.06,4,4,0,0,0,6.27,4,4,4,0,0,0,6.77,6a.78.78,0,0,1-.18.88,5,5,0,0,0-1.26,4.24,5.09,5.09,0,0,0,4.36,4.16h.19v3a.42.42,0,1,0,.84,0v-3A5,5,0,0,0,14,6.8.78.78,0,0,1,13.87,5.88Zm-.78,7.5a4.15,4.15,0,0,1-2.37,1V10.92l1.6-1.6a.42.42,0,0,0-.59-.59l-1,1V7.63a.42.42,0,1,0-.84,0v3.83l-1-1a.42.42,0,1,0-.59.59l1.6,1.6v1.76h-.1a4.24,4.24,0,0,1-3.63-3.46A4.19,4.19,0,0,1,7.21,7.4a1.6,1.6,0,0,0,.3-1.85A3.1,3.1,0,0,1,7.11,4,3.19,3.19,0,0,1,10.31.84a3.3,3.3,0,0,1,.56,0,3.22,3.22,0,0,1,2.55,2.47,3.15,3.15,0,0,1-.29,2.13,1.62,1.62,0,0,0,.24,1.89,4.19,4.19,0,0,1-.28,6Z"/></g></g></svg>