<svg xmlns="http://www.w3.org/2000/svg" viewBox="0 0 89.85 44.35"><defs><style>.cls-1{fill:#927854;}</style></defs><title>vision</title><g id="Layer_2" data-name="Layer 2"><g id="Layer_1-2" data-name="Layer 1"><path class="cls-1" d="M44.93,43.64A21.47,21.47,0,1,1,66.39,22.18,21.49,21.49,0,0,1,44.93,43.64Zm0-40.82A19.36,19.36,0,1,0,64.29,22.18,19.38,19.38,0,0,0,44.93,2.82Z"/><path class="cls-1" d="M44.93,44.35C20.52,44.35,1.1,23.77.28,22.89a1.05,1.05,0,0,1,0-1.44C1.1,20.58,20.52,0,44.93,0S88.76,20.58,89.57,21.46a1.05,1.05,0,0,1,0,1.44C88.76,23.77,69.34,44.35,44.93,44.35ZM2.53,22.18C6.22,25.84,24,42.25,44.93,42.25s38.7-16.41,42.4-20.07c-3.7-3.66-21.43-20.07-42.4-20.07S6.22,18.51,2.53,22.18Z"/><path class="cls-1" d="M52.63,33.08c-3.15,0-7.84-3.07-11.69-6.91-5-5-8.66-11.4-6-14s9,1.05,14,6h0c5,5,8.66,11.4,6,14A3.17,3.17,0,0,1,52.63,33.08ZM37.25,13.37a1.2,1.2,0,0,0-.87.27c-1,1,.83,5.83,6,11s10,7.06,11,6-.83-5.83-6-11h0C43.13,15.38,39.1,13.37,37.25,13.37Z"/><path class="cls-1" d="M44.93,36.36c-3.7,0-5.64-7.14-5.64-14.19S41.22,8,44.93,8s5.64,7.14,5.64,14.19S48.63,36.36,44.93,36.36Zm0-26.26c-1.44,0-3.54,4.71-3.54,12.08s2.09,12.08,3.54,12.08,3.54-4.71,3.54-12.08S46.37,10.1,44.93,10.1Z"/><path class="cls-1" d="M44.93,27.82c-7,0-14.18-1.94-14.18-5.64s7.14-5.64,14.18-5.64,14.18,1.94,14.18,5.64S52,27.82,44.93,27.82Zm0-9.18c-7.37,0-12.08,2.09-12.08,3.54s4.71,3.54,12.08,3.54S57,23.62,57,22.18,52.3,18.64,44.93,18.64Z"/><path class="cls-1" d="M37.23,33.08a3.17,3.17,0,0,1-2.33-.87c-2.62-2.62,1.06-9,6-14s11.4-8.66,14-6-1.06,9-6,14h0C45.07,30,40.38,33.08,37.23,33.08ZM52.6,13.37c-1.85,0-5.87,2-10.17,6.31-5.21,5.21-7.06,10-6,11s5.83-.83,11-6h0c5.21-5.21,7.06-10,6-11A1.2,1.2,0,0,0,52.6,13.37Z"/></g></g></svg>