<svg xmlns="http://www.w3.org/2000/svg" viewBox="0 0 73.13 75.86"><defs><style>.cls-1{fill:#fff;}</style></defs><title>walkable</title><g id="Layer_2" data-name="Layer 2"><g id="Layer_1-2" data-name="Layer 1"><path class="cls-1" d="M35.29,16.89a5.62,5.62,0,0,0-2.82.76,4.65,4.65,0,0,0-2.22,5.74c1.39,4.49,3.24,10.41,5.18,16.38a3.05,3.05,0,0,1-.36,2.9c-2.29,3.39-4.27,6.43-6,9.3a4.61,4.61,0,0,0-.7,2.2c-.09,3.58-.11,7.49-.07,12a3.07,3.07,0,0,0,1,2.36,3.27,3.27,0,0,0,2.24.72,3,3,0,0,0,3-3.16c0-1.11,0-2.22,0-3.33,0-2.22,0-4.51,0-6.77a4.75,4.75,0,0,1,.72-2.4l0-.06c2.95-4.61,6-9.37,9.14-14a5.17,5.17,0,0,0,.74-5c-.63-1.86-1.2-3.76-1.75-5.59q-.36-1.2-.73-2.41a.72.72,0,0,1,.3-.81l.46-.32a1,1,0,0,1,1.13,0c.2.16.41.31.63.48a7.49,7.49,0,0,1,1.5,1.33c1,1.25,1.93,2.54,2.85,3.79.57.78,1.16,1.58,1.75,2.36a3.65,3.65,0,0,0,2.19,1.53,2.58,2.58,0,0,0,1.8-.38c1.39-.83,1.54-2.19.41-3.72-.36-.49-.73-1-1.11-1.46A38.91,38.91,0,0,1,52.23,26a11.38,11.38,0,0,0-7-5.26,21.81,21.81,0,0,1-5.74-2.46,8,8,0,0,0-4.19-1.37M31.42,70.77a5.13,5.13,0,0,1-3.36-1.16,4.51,4.51,0,0,1-1.55-3.46c0-4.5,0-8.43.06-12a6,6,0,0,1,.92-2.92c1.79-2.88,3.78-5.94,6.08-9.35a1.67,1.67,0,0,0,.17-1.68c-1.94-6-3.79-11.9-5.18-16.4a6.14,6.14,0,0,1,3-7.45c2.7-1.53,5.88-1.3,9,.66a20,20,0,0,0,5.25,2.24,13.16,13.16,0,0,1,8,6,38,38,0,0,0,2.34,3.27c.37.48.76,1,1.13,1.48,1.65,2.24,1.3,4.54-.9,5.85a4.51,4.51,0,0,1-3.12.62,5.33,5.33,0,0,1-3.31-2.18c-.6-.79-1.19-1.6-1.76-2.38-.91-1.24-1.84-2.52-2.81-3.75a3.25,3.25,0,0,0-.45-.45l.26.87c.55,1.82,1.11,3.71,1.73,5.54A6.55,6.55,0,0,1,46,40.3c-3.13,4.6-6.17,9.36-9.11,14l0,.06A3.31,3.31,0,0,0,36.33,56c0,2.24,0,4.53,0,6.74q0,1.67,0,3.34a4.6,4.6,0,0,1-4.74,4.7h-.15"/><path class="cls-1" d="M25.77,12.08a8.49,8.49,0,0,0,5.68,2.13h0c4.33,0,8-3.26,8-7.11a6.64,6.64,0,0,0-2.33-5A8.48,8.48,0,0,0,31.5,0h0c-4.4,0-8,3.13-8.07,7a6.8,6.8,0,0,0,2.36,5.1M31.48,1.66h0a6.48,6.48,0,0,1,4.32,1.61A5.08,5.08,0,0,1,37.6,7.1c0,2.95-2.83,5.45-6.14,5.45h0a6.5,6.5,0,0,1-4.34-1.64A5.14,5.14,0,0,1,25.28,7c0-3,2.82-5.35,6.2-5.35"/><path class="cls-1" d="M53.89,60.08C52.61,58.33,52,57.71,50.8,55.9a22.65,22.65,0,0,1-2.12-4c-.54-1.29-1-2.63-1.49-4.05-.23-.66-.46-1.33-.71-2a.85.85,0,0,0-.74-.54.92.92,0,0,0-.85.38c-.49.75-.93,1.47-1.36,2.17a32.57,32.57,0,0,1-2.77,4.05c-1.12,1.32-2.11,3.27.16,6.62,1.92,2.84,3.27,4.45,5.28,7.16l1.72,2.31a5.36,5.36,0,0,0,4.32,2.3,5.47,5.47,0,0,0,2.69-.73c2.4-1.35,2.9-4,1.21-6.32-.74-1-1.51-2.09-2.25-3.1M54,68.2a3.39,3.39,0,0,1-4.61-1.11l-1.72-2.32c-2-2.7-3.34-4.3-5.25-7.11-1.21-1.79-1.67-3.23-.26-4.9a33.35,33.35,0,0,0,2.91-4.24l.35-.56.11.31c.5,1.44,1,2.81,1.52,4.14A24,24,0,0,0,49.3,56.7c1.25,1.83,1.84,2.46,3.13,4.23.74,1,1.5,2.06,2.24,3.09,1.2,1.68.94,3.28-.67,4.19"/><path class="cls-1" d="M26.11,31.16a2.35,2.35,0,0,0,1.59-1,1.71,1.71,0,0,0,.26-.86,6.7,6.7,0,0,0-.05-.56,3.11,3.11,0,0,0-.13-.47c-.11-.3-.21-.61-.31-.92-.31-.92-.6-1.86-.89-2.85l-.33-1.12L26,22.64a.76.76,0,0,0-.22-.31.66.66,0,0,0-.07-.08.9.9,0,0,0-.43-.17.93.93,0,0,0-.6.15.82.82,0,0,0-.27.21,3.4,3.4,0,0,1-1,1,4.77,4.77,0,0,1-2,.66c-.4.06-.81.1-1.26.13l-.29,0-.22,0-1.78.18c-1.76.19-3.46.4-5,.59a5.11,5.11,0,0,0-2.41.95A3.57,3.57,0,0,0,9,29.17s0,.07,0,.11A3.83,3.83,0,0,0,10.74,32a4.49,4.49,0,0,0,.78.4,5.24,5.24,0,0,0,2,.4,5.61,5.61,0,0,0,.63,0l.63-.07.88-.1,4.14-.46,1.39-.17c1.57-.2,3.24-.43,4.9-.78M15.48,31l-.89.1L14,31.2a3.44,3.44,0,0,1-1.7-.22,2.77,2.77,0,0,1-.48-.25,2.34,2.34,0,0,1-1-1.3,2.28,2.28,0,0,1-.08-.34,1.73,1.73,0,0,1,0-.45,2.05,2.05,0,0,1,.51-1.08,3.1,3.1,0,0,1,2-1c2-.25,4.32-.53,6.68-.77l.29,0,.2,0a8.15,8.15,0,0,0,4.36-1.27l.13.46c.4,1.35.77,2.62,1.22,3.86a1.36,1.36,0,0,1,.1.48.35.35,0,0,1,0,.18.39.39,0,0,1-.13.09,1.24,1.24,0,0,1-.34.12c-.89.19-1.8.34-2.69.47L21,30.41c-1.17.15-2.36.28-3.54.41l-2,.21"/><path class="cls-1" d="M23,30.13,21,30.41c-1.17.15-2.36.28-3.53.41,1.18-.13,2.36-.26,3.53-.41L23,30.13"/><path class="cls-1" d="M13.22,26.56c2-.25,4.32-.53,6.68-.77l.29,0-.29,0c-2.36.23-4.7.52-6.68.77a3.09,3.09,0,0,0-2,1,3.09,3.09,0,0,1,2-1"/><path class="cls-1" d="M14.59,31.13l.89-.09,2-.21-2,.21Z"/><path class="cls-1" d="M24.76,24.48l.13.46c.4,1.35.77,2.62,1.22,3.86a1.37,1.37,0,0,1,.1.48,1.36,1.36,0,0,0-.1-.48c-.45-1.24-.83-2.51-1.22-3.86l-.13-.46a8.15,8.15,0,0,1-4.36,1.27l-.21,0,.21,0a8.17,8.17,0,0,0,4.36-1.27"/><rect class="cls-1" y="74.44" width="73.13" height="1.42"/></g></g></svg>