<?xml version="1.0" encoding="UTF-8"?>
<svg width="23px" height="16px" viewBox="0 0 23 16" version="1.1" xmlns="http://www.w3.org/2000/svg" xmlns:xlink="http://www.w3.org/1999/xlink">
    <!-- Generator: Sketch 53.1 (72631) - https://sketchapp.com -->
    <title>youtobe</title>
    <desc>Created with Sketch.</desc>
    <g id="Page-1" stroke="none" stroke-width="1" fill="none" fill-rule="evenodd">
        <g id="youtobe" fill="#000000" fill-rule="nonzero">
            <path d="M22.16,8 L22.16,11 C22.16,13.76 21.16,14.67 20.49,15.19 C19.49,15.94 16.42,15.94 16.42,15.94 L11.08,15.94 L5.74,15.94 C5.74,15.94 2.65,15.94 1.67,15.19 C1,14.6 0,13.7 0,10.94 L0,5 C0,2.21 1,1.3 1.67,0.78 C2.65,0 5.74,0 5.74,0 L11.08,0 L16.42,0 C16.42,0 19.51,0 20.49,0.75 C21.18,1.27 22.16,2.18 22.16,4.94 L22.16,8 Z M8.83,11.25 L14.56,8 L8.83,4.65 L8.83,11.25 Z" id="Combined-Shape"></path>
        </g>
    </g>
</svg>