<svg xmlns="http://www.w3.org/2000/svg" viewBox="0 0 25.48 25.48"><defs><style>.cls-1{fill:#fff;}</style></defs><title>zoom-plus</title><g id="Layer_2" data-name="Layer 2"><g id="Layer_1-2" data-name="Layer 1"><path class="cls-1" d="M10.25,0H11.7l.2,0a10.09,10.09,0,0,1,4.63,1.47A10.78,10.78,0,0,1,21.93,12a10.14,10.14,0,0,1-1.71,5c-.23.35-.48.68-.76,1.08a1.26,1.26,0,0,1,.23.15q2.57,2.56,5.13,5.13a8.8,8.8,0,0,1,.67.87v.47a2.91,2.91,0,0,1-.38.57,1.05,1.05,0,0,1-1.55-.16L18.2,19.7a1.77,1.77,0,0,1-.18-.26.49.49,0,0,1-.1.07l-.33.25a10.7,10.7,0,0,1-9.27,1.87,10.88,10.88,0,0,1-8-13.25A10.65,10.65,0,0,1,8.94.2C9.37.1,9.81.06,10.25,0ZM11,2.13A8.87,8.87,0,1,0,19.86,11,8.86,8.86,0,0,0,11,2.13Z"/><path class="cls-1" d="M9.93,12.06H7.82c-.61,0-1.23,0-1.84,0A1.06,1.06,0,1,1,6,9.93H9.93c0-.1,0-.19,0-.28,0-1.24,0-2.48,0-3.72a1,1,0,0,1,.65-1,1,1,0,0,1,1.11.19,1.16,1.16,0,0,1,.36.94q0,1.77,0,3.53c0,.09,0,.19,0,.32h4a1,1,0,0,1,1,.55,1,1,0,0,1,0,1.06,1.09,1.09,0,0,1-1,.51H12.05c0,.11,0,.2,0,.29,0,1.2,0,2.39,0,3.59a1.07,1.07,0,0,1-1,1.17A1,1,0,0,1,9.93,16c0-1.22,0-2.44,0-3.66C9.93,12.28,9.93,12.19,9.93,12.06Z"/></g></g></svg>