<?xml version="1.0" encoding="UTF-8"?>
<svg width="140px" height="121px" viewBox="0 0 140 121" version="1.1" xmlns="http://www.w3.org/2000/svg" xmlns:xlink="http://www.w3.org/1999/xlink">
    <!-- Generator: Sketch 52.5 (67469) - http://www.bohemiancoding.com/sketch -->
    <title>Group 21</title>
    <desc>Created with Sketch.</desc>
    <defs>
        <polygon id="path-1" points="0 0.4743 35.5647 0.4743 35.5647 26.2703 0 26.2703"></polygon>
        <polygon id="path-3" points="0.5862 0.7842 5.4972 0.7842 5.4972 8 0.5862 8"></polygon>
        <polygon id="path-5" points="0.9028 0.7842 5.8138 0.7842 5.8138 8 0.9028 8"></polygon>
        <polygon id="path-7" points="0 121 139.27 121 139.27 0.964 0 0.964"></polygon>
    </defs>
    <g id="Page-1" stroke="none" stroke-width="1" fill="none" fill-rule="evenodd">
        <g id="homepage-ar" transform="translate(-41.000000, -30.000000)">
            <g id="Group-67" transform="translate(41.000000, 29.000000)">
                <g id="Group-21">
                    <path d="M59.7249,1.0183 L48.6719,26.8083 L54.1009,26.8083 L56.5079,21.1563 L66.5799,21.1563 L68.9869,26.8083 L74.4159,26.8083 L63.3849,1.0693 L63.3629,1.0183 L59.7249,1.0183 Z M61.5259,9.3183 L64.6399,16.5623 L58.4119,16.5623 L61.5259,9.3183 Z" id="Fill-1" fill="#FFFFFF"></path>
                    <polygon id="Fill-2" fill="#FFFFFF" points="77.7717 1.0003 77.7717 26.8083 93.7157 26.8083 93.7157 22.1693 82.9587 22.1693 82.9587 1.0003"></polygon>
                    <g id="Group-66" transform="translate(0.000000, 0.036000)">
                        <path d="M29.361,78.5843 C29.361,93.2043 26.481,97.4313 17.715,97.4313 C9.118,97.4313 6.014,92.8523 6.014,78.5843 L6.014,70.0063 L0.953,70.0063 L0.953,78.5843 C0.953,87.4603 2.042,93.0623 4.484,96.7483 C7.03,100.5923 11.504,102.3823 17.824,102.3823 C24.951,102.3823 29.903,99.8943 32.255,94.7763 C34.258,90.4143 34.421,84.8133 34.421,78.4753 L34.421,61.8903 L29.361,62.2343 L29.361,78.5843 Z" id="Fill-3" fill="#FFFFFF"></path>
                        <path d="M74.9091,61.8411 L70.0021,61.8411 L69.5491,66.6831 L74.9091,66.6831 C79.6891,66.6831 81.7281,69.4911 81.7281,76.0711 L81.7281,84.4701 L66.7841,84.4701 L66.7841,89.3661 L86.7891,89.3661 L86.7891,76.2351 C86.7891,66.0111 83.3471,61.8411 74.9091,61.8411" id="Fill-5" fill="#FFFFFF"></path>
                        <polygon id="Fill-7" fill="#FFFFFF" points="62.0807 61.8411 57.0907 62.3221 57.0907 84.4891 43.9747 84.4891 43.9747 31.4951 39.0307 31.4741 39.0307 89.3661 62.0807 89.3661"></polygon>
                        <path d="M52.1867,95.7854 C50.3677,95.7854 48.8887,97.2654 48.8887,99.0834 C48.8887,100.9024 50.3677,102.3824 52.1867,102.3824 C54.0047,102.3824 55.4847,100.9024 55.4847,99.0834 C55.4847,97.2654 54.0047,95.7854 52.1867,95.7854" id="Fill-9" fill="#FFFFFF"></path>
                        <path d="M21.0627,65.1883 C21.0627,63.3693 19.5837,61.8903 17.7647,61.8903 C15.9467,61.8903 14.4667,63.3693 14.4667,65.1883 C14.4667,67.0073 15.9467,68.4863 17.7647,68.4863 C19.5837,68.4863 21.0627,67.0073 21.0627,65.1883" id="Fill-11" fill="#FFFFFF"></path>
                        <path d="M62.0807,95.7854 C60.2617,95.7854 58.7827,97.2654 58.7827,99.0834 C58.7827,100.9024 60.2617,102.3824 62.0807,102.3824 C63.8987,102.3824 65.3787,100.9024 65.3787,99.0834 C65.3787,97.2654 63.8987,95.7854 62.0807,95.7854" id="Fill-13" fill="#FFFFFF"></path>
                        <g id="Group-17" transform="translate(0.000000, 31.000000)">
                            <mask id="mask-2" fill="white">
                                <use xlink:href="#path-1"></use>
                            </mask>
                            <g id="Clip-16"></g>
                            <polygon id="Fill-15" fill="#FFFFFF" mask="url(#mask-2)" points="25.1567 16.2913 19.6027 0.5313 19.5827 0.4743 15.9827 0.4743 10.4087 16.2913 5.1607 0.4743 -0.0003 0.4743 8.5507 26.2703 12.1517 26.2703 17.7647 10.2283 23.3947 26.2133 23.4147 26.2703 27.0147 26.2703 35.5267 0.5873 35.5647 0.4743 30.4047 0.4743"></polygon>
                        </g>
                        <polygon id="Fill-18" fill="#FFFFFF" points="79.7463 45.6057 79.7463 57.2717 84.8603 57.2717 84.8603 45.6057 93.7163 31.4737 87.8753 31.4737 82.3213 40.4027 76.7323 31.4737 70.8913 31.4737"></polygon>
                        <path d="M63.8683,49.9075 C62.3453,51.8215 60.2093,52.7505 57.3363,52.7505 L53.7353,52.7505 L53.7353,35.9645 L57.3363,35.9645 C60.2093,35.9645 62.3453,36.8945 63.8683,38.8075 C65.0683,40.3075 65.7293,42.2795 65.7293,44.3575 C65.7293,46.4365 65.0683,48.4075 63.8683,49.9075 M70.7943,44.3575 C70.7943,40.0805 68.8403,36.2465 65.6693,33.8865 C63.5673,32.3375 60.8763,31.4525 56.7833,31.4525 L48.6713,31.4525 L48.6713,57.2625 L56.7833,57.2625 C60.8763,57.2625 63.5673,56.3775 65.6693,54.8285 C68.8403,52.4695 70.7943,48.6345 70.7943,44.3575" id="Fill-20" fill="#FFFFFF"></path>
                        <path d="M102.9457,39.7586 L106.0727,47.0316 L99.8177,47.0316 L102.9457,39.7586 Z M97.8777,51.5966 L108.0507,51.5966 L110.4657,57.2716 L115.8147,57.2716 L104.7817,31.5266 L104.7597,31.4736 L101.1677,31.4736 L90.1127,57.2716 L95.4617,57.2716 L97.8777,51.5966 Z" id="Fill-22" fill="#FFFFFF"></path>
                        <path d="M107.0131,84.4739 L101.8221,84.4739 C97.3771,84.4739 96.5341,81.4239 96.5341,75.7959 C96.5341,69.6619 97.7821,67.2869 102.2311,67.2869 C105.6481,67.2869 107.1651,68.5499 107.1651,78.3579 C107.1651,80.7759 107.1141,82.4759 107.0131,84.4739 Z M134.1091,89.3669 L139.0191,88.9479 L138.9971,31.4739 L134.1091,31.4739 L134.1091,44.0059 L123.4111,31.4739 L118.5951,31.4739 L118.5951,84.4779 L112.2931,84.4749 C112.3951,82.5009 112.4441,80.4119 112.4441,78.0919 C112.4441,71.7999 111.8771,68.2449 110.4861,65.8219 C108.9061,63.0689 106.2341,61.8409 101.8221,61.8409 C92.4151,61.8409 91.1461,68.8949 91.1461,75.7959 C91.1461,87.6059 97.8351,89.3699 101.8221,89.3699 L106.5801,89.3699 C105.6811,95.1719 103.5061,97.5399 99.0881,97.5399 C97.9991,97.5399 96.6341,97.2139 95.5251,96.6879 L95.1911,96.5299 L95.1911,101.4669 L95.3111,101.5319 C95.3251,101.5399 96.8271,102.3819 99.9091,102.3819 C106.9701,102.3819 110.5331,98.4899 111.8131,89.3699 L123.4111,89.3669 L123.4111,39.0649 L134.1091,51.5969 L134.1091,69.7829 L134.1091,89.3669 Z" id="Fill-24" fill="#FFFFFF"></path>
                        <g id="Group-28" transform="translate(0.000000, 113.000000)">
                            <mask id="mask-4" fill="white">
                                <use xlink:href="#path-3"></use>
                            </mask>
                            <g id="Clip-27"></g>
                            <path d="M1.4682,6.0262 C1.8692,6.4662 2.4802,6.7972 3.1222,6.7972 C3.7232,6.7972 4.1442,6.4262 4.1442,5.9162 C4.1442,5.0132 2.8412,4.9022 1.8992,4.3512 C1.3472,4.0302 0.9062,3.5502 0.9062,2.7572 C0.9062,1.5052 2.0592,0.7842 3.2222,0.7842 C3.9342,0.7842 4.5952,0.9542 5.2572,1.4442 L4.5552,2.4472 C4.2742,2.1862 3.8032,1.9852 3.3422,1.9852 C2.8312,1.9852 2.2602,2.2062 2.2602,2.7482 C2.2602,3.8812 5.4972,3.5292 5.4972,5.8952 C5.4972,7.1382 4.3852,8.0002 3.1222,8.0002 C2.1792,8.0002 1.3082,7.6092 0.5862,6.9472 L1.4682,6.0262 Z" id="Fill-26" fill="#FFFFFF" mask="url(#mask-4)"></path>
                        </g>
                        <polygon id="Fill-29" fill="#FFFFFF" points="11.5134 117.743 8.0054 117.743 8.0054 120.9 6.6524 120.9 6.6524 113.884 8.0054 113.884 8.0054 116.54 11.5134 116.54 11.5134 113.884 12.8664 113.884 12.8664 120.9 11.5134 120.9"></polygon>
                        <path d="M16.2582,118.1438 L18.0422,118.1438 L17.1502,116.0688 L16.2582,118.1438 Z M13.6722,120.8998 L16.6792,113.8838 L17.6312,113.8838 L20.6382,120.8998 L19.2252,120.8998 L18.5632,119.3468 L15.7472,119.3468 L15.0852,120.8998 L13.6722,120.8998 Z" id="Fill-31" fill="#FFFFFF"></path>
                        <path d="M24.0195,116.8406 C24.4805,116.8406 24.7105,116.7306 24.8715,116.5606 C25.0215,116.3996 25.1025,116.1986 25.1025,115.9676 C25.1025,115.7376 25.0215,115.5276 24.8715,115.3676 C24.7105,115.1956 24.4805,115.0856 24.0195,115.0856 L22.7965,115.0856 L22.7965,116.8406 L24.0195,116.8406 Z M22.7965,118.0436 L22.7965,120.8996 L21.4435,120.8996 L21.4435,113.8836 L24.0795,113.8836 C24.9815,113.8836 25.5125,114.1046 25.9045,114.5156 C26.2545,114.8756 26.4545,115.4166 26.4545,115.9676 C26.4545,116.5196 26.2545,117.0606 25.9045,117.4226 C25.5225,117.8226 24.9815,118.0436 24.0795,118.0436 L22.7965,118.0436 Z" id="Fill-33" fill="#FFFFFF"></path>
                        <polygon id="Fill-35" fill="#FFFFFF" points="28.8134 115.0857 28.8134 116.5397 30.9684 116.5397 30.9684 117.7427 28.8134 117.7427 28.8134 119.6967 31.7704 119.6967 31.7704 120.8997 27.4604 120.8997 27.4604 113.8837 31.6694 113.8837 31.6694 115.0857"></polygon>
                        <path d="M37.1249,115.868 C36.7339,115.377 36.1629,115.086 35.3309,115.086 L34.3289,115.086 L34.3289,119.697 L35.3309,119.697 C36.1629,119.697 36.7339,119.407 37.1249,118.916 C37.4459,118.514 37.6359,117.972 37.6359,117.392 C37.6359,116.81 37.4459,116.269 37.1249,115.868 Z M35.1809,113.884 C36.2929,113.884 37.0249,114.124 37.5959,114.545 C38.4579,115.186 38.9889,116.229 38.9889,117.392 C38.9889,118.555 38.4579,119.597 37.5959,120.238 C37.0249,120.659 36.2929,120.9 35.1809,120.9 L32.9759,120.9 L32.9759,113.884 L35.1809,113.884 Z" id="Fill-37" fill="#FFFFFF"></path>
                        <path d="M45.5087,119.6966 C45.9807,119.6966 46.2407,119.5766 46.4107,119.3856 C46.5717,119.2166 46.6617,118.9956 46.6617,118.7446 C46.6617,118.4936 46.5717,118.2746 46.4107,118.1036 C46.2407,117.9126 45.9807,117.7926 45.5087,117.7926 L44.1557,117.7926 L44.1557,119.6966 L45.5087,119.6966 Z M44.1557,116.5896 L45.1077,116.5896 C45.5287,116.5896 45.7187,116.4896 45.8597,116.3396 C45.9807,116.2096 46.0607,116.0296 46.0607,115.8376 C46.0607,115.6476 45.9807,115.4676 45.8597,115.3366 C45.7187,115.1866 45.5287,115.0856 45.1077,115.0856 L44.1557,115.0856 L44.1557,116.5896 Z M45.1877,113.8846 C45.9807,113.8846 46.4207,114.0736 46.7617,114.3746 C47.1527,114.7156 47.4137,115.2166 47.4137,115.7886 C47.4137,116.2496 47.1927,116.7196 46.9627,116.9606 C47.5837,117.2716 48.0147,117.9726 48.0147,118.7546 C48.0147,119.3466 47.7637,119.8866 47.3727,120.2686 C46.9827,120.6586 46.4407,120.8996 45.5397,120.8996 L42.8027,120.8996 L42.8027,113.8846 L45.1877,113.8846 Z" id="Fill-39" fill="#FFFFFF"></path>
                        <polygon id="Fill-41" fill="#FFFFFF" points="51.6261 117.7229 51.6261 120.8999 50.2731 120.8999 50.2731 117.7229 47.8671 113.8839 49.4111 113.8839 50.9541 116.3499 52.4881 113.8839 54.0321 113.8839"></polygon>
                        <polygon id="Fill-43" fill="#FFFFFF" points="61.7043 113.8841 61.7043 115.0861 59.8503 115.0861 59.8503 120.9001 58.4973 120.9001 58.4973 115.0861 56.6423 115.0861 56.6423 113.8841"></polygon>
                        <polygon id="Fill-45" fill="#FFFFFF" points="67.6205 117.743 64.1125 117.743 64.1125 120.9 62.7595 120.9 62.7595 113.884 64.1125 113.884 64.1125 116.54 67.6205 116.54 67.6205 113.884 68.9735 113.884 68.9735 120.9 67.6205 120.9"></polygon>
                        <polygon id="Fill-47" fill="#FFFFFF" points="71.9347 115.0857 71.9347 116.5397 74.0897 116.5397 74.0897 117.7427 71.9347 117.7427 71.9347 119.6967 74.8917 119.6967 74.8917 120.8997 70.5817 120.8997 70.5817 113.8837 74.7907 113.8837 74.7907 115.0857"></polygon>
                        <g id="Group-51" transform="translate(77.000000, 113.000000)">
                            <mask id="mask-6" fill="white">
                                <use xlink:href="#path-5"></use>
                            </mask>
                            <g id="Clip-50"></g>
                            <path d="M1.7848,6.0262 C2.1858,6.4662 2.7968,6.7972 3.4378,6.7972 C4.0398,6.7972 4.4608,6.4262 4.4608,5.9162 C4.4608,5.0132 3.1578,4.9022 2.2158,4.3512 C1.6648,4.0302 1.2228,3.5502 1.2228,2.7572 C1.2228,1.5052 2.3758,0.7842 3.5378,0.7842 C4.2508,0.7842 4.9118,0.9542 5.5728,1.4442 L4.8718,2.4472 C4.5918,2.1862 4.1198,1.9852 3.6588,1.9852 C3.1478,1.9852 2.5758,2.2062 2.5758,2.7482 C2.5758,3.8812 5.8138,3.5292 5.8138,5.8952 C5.8138,7.1382 4.7018,8.0002 3.4378,8.0002 C2.4958,8.0002 1.6238,7.6092 0.9028,6.9472 L1.7848,6.0262 Z" id="Fill-49" fill="#FFFFFF" mask="url(#mask-6)"></path>
                        </g>
                        <path d="M85.8027,118.1438 L87.5867,118.1438 L86.6947,116.0688 L85.8027,118.1438 Z M83.2167,120.8998 L86.2237,113.8838 L87.1757,113.8838 L90.1827,120.8998 L88.7697,120.8998 L88.1077,119.3468 L85.2917,119.3468 L84.6297,120.8998 L83.2167,120.8998 Z" id="Fill-52" fill="#FFFFFF"></path>
                        <path d="M91.4892,120.2786 C90.9072,119.7576 90.5862,119.0156 90.5862,117.9436 L90.5862,113.8836 L91.9392,113.8836 L91.9392,118.0436 C91.9392,118.6846 92.1102,119.0756 92.4012,119.3466 C92.7012,119.6366 93.1222,119.7976 93.5932,119.7976 C94.0642,119.7976 94.4852,119.6366 94.7862,119.3466 C95.0772,119.0756 95.2472,118.6846 95.2472,118.0436 L95.2472,113.8836 L96.6012,113.8836 L96.6012,117.9436 C96.6012,119.0156 96.2802,119.7576 95.6982,120.2786 C95.1572,120.7586 94.3852,120.9996 93.5932,120.9996 C92.8012,120.9996 92.0292,120.7586 91.4892,120.2786" id="Fill-54" fill="#FFFFFF"></path>
                        <path d="M102.3075,115.868 C101.9155,115.377 101.3455,115.086 100.5125,115.086 L99.5105,115.086 L99.5105,119.697 L100.5125,119.697 C101.3455,119.697 101.9155,119.407 102.3075,118.916 C102.6285,118.514 102.8185,117.972 102.8185,117.392 C102.8185,116.81 102.6285,116.269 102.3075,115.868 Z M100.3625,113.884 C101.4745,113.884 102.2075,114.124 102.7775,114.545 C103.6405,115.186 104.1715,116.229 104.1715,117.392 C104.1715,118.555 103.6405,119.597 102.7775,120.238 C102.2075,120.659 101.4745,120.9 100.3625,120.9 L98.1575,120.9 L98.1575,113.884 L100.3625,113.884 Z" id="Fill-56" fill="#FFFFFF"></path>
                        <mask id="mask-8" fill="white">
                            <use xlink:href="#path-7"></use>
                        </mask>
                        <g id="Clip-59"></g>
                        <polygon id="Fill-58" fill="#FFFFFF" mask="url(#mask-8)" points="105.277 120.9 106.631 120.9 106.631 113.884 105.277 113.884"></polygon>
                        <path d="M110.924,119.0262 C111.325,119.4662 111.936,119.7972 112.577,119.7972 C113.179,119.7972 113.6,119.4262 113.6,118.9162 C113.6,118.0132 112.297,117.9022 111.355,117.3512 C110.804,117.0302 110.362,116.5502 110.362,115.7572 C110.362,114.5052 111.515,113.7842 112.677,113.7842 C113.39,113.7842 114.052,113.9542 114.712,114.4442 L114.011,115.4472 C113.731,115.1862 113.259,114.9852 112.798,114.9852 C112.287,114.9852 111.715,115.2062 111.715,115.7482 C111.715,116.8812 114.953,116.5292 114.953,118.8952 C114.953,120.1382 113.841,121.0002 112.577,121.0002 C111.635,121.0002 110.763,120.6092 110.042,119.9472 L110.924,119.0262 Z" id="Fill-60" fill="#FFFFFF" mask="url(#mask-8)"></path>
                        <path d="M118.6838,116.8406 C119.1448,116.8406 119.3758,116.7306 119.5358,116.5606 C119.6868,116.3996 119.7668,116.1986 119.7668,115.9676 C119.7668,115.7376 119.6868,115.5276 119.5358,115.3676 C119.3758,115.1956 119.1448,115.0856 118.6838,115.0856 L117.4618,115.0856 L117.4618,116.8406 L118.6838,116.8406 Z M117.4618,118.0436 L117.4618,120.8996 L116.1078,120.8996 L116.1078,113.8836 L118.7448,113.8836 C119.6458,113.8836 120.1768,114.1046 120.5688,114.5156 C120.9198,114.8756 121.1198,115.4166 121.1198,115.9676 C121.1198,116.5196 120.9198,117.0606 120.5688,117.4226 C120.1868,117.8226 119.6458,118.0436 118.7448,118.0436 L117.4618,118.0436 Z" id="Fill-61" fill="#FFFFFF" mask="url(#mask-8)"></path>
                        <polygon id="Fill-62" fill="#FFFFFF" mask="url(#mask-8)" points="122.124 120.9 123.478 120.9 123.478 113.884 122.124 113.884"></polygon>
                        <path d="M127.5583,116.5896 C127.9503,116.5896 128.1203,116.5096 128.2403,116.3796 C128.3603,116.2496 128.4403,116.0476 128.4403,115.8476 C128.4403,115.6376 128.3603,115.4376 128.2403,115.3066 C128.1203,115.1766 127.9503,115.0856 127.5583,115.0856 L126.4363,115.0856 L126.4363,116.5896 L127.5583,116.5896 Z M126.4363,117.7926 L126.4363,120.8996 L125.0823,120.8996 L125.0823,113.8836 L127.6393,113.8836 C128.3603,113.8836 128.8223,114.0846 129.1723,114.4046 C129.5533,114.7656 129.7933,115.2776 129.7933,115.8376 C129.7933,116.3996 129.5533,116.9106 129.1723,117.2716 C128.9823,117.4516 128.7513,117.5916 128.4713,117.6826 L131.0963,120.8996 L129.4233,120.8996 L126.9273,117.7926 L126.4363,117.7926 Z" id="Fill-63" fill="#FFFFFF" mask="url(#mask-8)"></path>
                        <polygon id="Fill-64" fill="#FFFFFF" mask="url(#mask-8)" points="131.801 120.9 133.155 120.9 133.155 113.884 131.801 113.884"></polygon>
                        <polygon id="Fill-65" fill="#FFFFFF" mask="url(#mask-8)" points="139.2699 113.8841 139.2699 115.0861 137.4159 115.0861 137.4159 120.9001 136.0629 120.9001 136.0629 115.0861 134.2089 115.0861 134.2089 113.8841"></polygon>
                    </g>
                </g>
            </g>
        </g>
    </g>
</svg>