<?xml version="1.0" encoding="UTF-8"?>
<svg width="140px" height="121px" viewBox="0 0 140 121" version="1.1" xmlns="http://www.w3.org/2000/svg" xmlns:xlink="http://www.w3.org/1999/xlink">
    <!-- Generator: Sketch 52.5 (67469) - http://www.bohemiancoding.com/sketch -->
    <title>Group 21</title>
    <desc>Created with Sketch.</desc>
    <defs>
        <polygon id="path-1" points="0 0.4743 35.5647 0.4743 35.5647 26.2703 0 26.2703"></polygon>
        <polygon id="path-3" points="0.5862 0.7842 5.4972 0.7842 5.4972 8 0.5862 8"></polygon>
        <polygon id="path-5" points="0.9028 0.7842 5.8138 0.7842 5.8138 8 0.9028 8"></polygon>
        <polygon id="path-7" points="0 121 139.27 121 139.27 0.964 0 0.964"></polygon>
    </defs>
    <g id="Page-1" stroke="none" stroke-width="1" fill="none" fill-rule="evenodd">
        <g id="homepage-ar" transform="translate(-41.000000, -30.000000)">
            <g id="Group-67" transform="translate(41.000000, 29.000000)">
                <g id="Group-21">
                    <path d="M59.7249,1.0183 L48.6719,26.8083 L54.1009,26.8083 L56.5079,21.1563 L66.5799,21.1563 L68.9869,26.8083 L74.4159,26.8083 L63.3849,1.0693 L63.3629,1.0183 L59.7249,1.0183 Z M61.5259,9.3183 L64.6399,16.5623 L58.4119,16.5623 L61.5259,9.3183 Z" id="Fill-1" fill="#b89d7f"></path>
                    <polygon id="Fill-2" fill="#b89d7f" points="77.7717 1.0003 77.7717 26.8083 93.7157 26.8083 93.7157 22.1693 82.9587 22.1693 82.9587 1.0003"></polygon>
                    <g id="Group-66" transform="translate(0.000000, 0.036000)">
                        <path d="M29.361,78.5843 C29.361,93.2043 26.481,97.4313 17.715,97.4313 C9.118,97.4313 6.014,92.8523 6.014,78.5843 L6.014,70.0063 L0.953,70.0063 L0.953,78.5843 C0.953,87.4603 2.042,93.0623 4.484,96.7483 C7.03,100.5923 11.504,102.3823 17.824,102.3823 C24.951,102.3823 29.903,99.8943 32.255,94.7763 C34.258,90.4143 34.421,84.8133 34.421,78.4753 L34.421,61.8903 L29.361,62.2343 L29.361,78.5843 Z" id="Fill-3" fill="#b89d7f"></path>
                        <path d="M74.9091,61.8411 L70.0021,61.8411 L69.5491,66.6831 L74.9091,66.6831 C79.6891,66.6831 81.7281,69.4911 81.7281,76.0711 L81.7281,84.4701 L66.7841,84.4701 L66.7841,89.3661 L86.7891,89.3661 L86.7891,76.2351 C86.7891,66.0111 83.3471,61.8411 74.9091,61.8411" id="Fill-5" fill="#b89d7f"></path>
                        <polygon id="Fill-7" fill="#b89d7f" points="62.0807 61.8411 57.0907 62.3221 57.0907 84.4891 43.9747 84.4891 43.9747 31.4951 39.0307 31.4741 39.0307 89.3661 62.0807 89.3661"></polygon>
                        <path d="M52.1867,95.7854 C50.3677,95.7854 48.8887,97.2654 48.8887,99.0834 C48.8887,100.9024 50.3677,102.3824 52.1867,102.3824 C54.0047,102.3824 55.4847,100.9024 55.4847,99.0834 C55.4847,97.2654 54.0047,95.7854 52.1867,95.7854" id="Fill-9" fill="#b89d7f"></path>
                        <path d="M21.0627,65.1883 C21.0627,63.3693 19.5837,61.8903 17.7647,61.8903 C15.9467,61.8903 14.4667,63.3693 14.4667,65.1883 C14.4667,67.0073 15.9467,68.4863 17.7647,68.4863 C19.5837,68.4863 21.0627,67.0073 21.0627,65.1883" id="Fill-11" fill="#b89d7f"></path>
                        <path d="M62.0807,95.7854 C60.2617,95.7854 58.7827,97.2654 58.7827,99.0834 C58.7827,100.9024 60.2617,102.3824 62.0807,102.3824 C63.8987,102.3824 65.3787,100.9024 65.3787,99.0834 C65.3787,97.2654 63.8987,95.7854 62.0807,95.7854" id="Fill-13" fill="#b89d7f"></path>
                        <g id="Group-17" transform="translate(0.000000, 31.000000)">
                            <mask id="mask-2" fill="white">
                                <use xlink:href="#path-1"></use>
                            </mask>
                            <g id="Clip-16"></g>
                            <polygon id="Fill-15" fill="#b89d7f" mask="url(#mask-2)" points="25.1567 16.2913 19.6027 0.5313 19.5827 0.4743 15.9827 0.4743 10.4087 16.2913 5.1607 0.4743 -0.0003 0.4743 8.5507 26.2703 12.1517 26.2703 17.7647 10.2283 23.3947 26.2133 23.4147 26.2703 27.0147 26.2703 35.5267 0.5873 35.5647 0.4743 30.4047 0.4743"></polygon>
                        </g>
                        <polygon id="Fill-18" fill="#b89d7f" points="79.7463 45.6057 79.7463 57.2717 84.8603 57.2717 84.8603 45.6057 93.7163 31.4737 87.8753 31.4737 82.3213 40.4027 76.7323 31.4737 70.8913 31.4737"></polygon>
                        <path d="M63.8683,49.9075 C62.3453,51.8215 60.2093,52.7505 57.3363,52.7505 L53.7353,52.7505 L53.7353,35.9645 L57.3363,35.9645 C60.2093,35.9645 62.3453,36.8945 63.8683,38.8075 C65.0683,40.3075 65.7293,42.2795 65.7293,44.3575 C65.7293,46.4365 65.0683,48.4075 63.8683,49.9075 M70.7943,44.3575 C70.7943,40.0805 68.8403,36.2465 65.6693,33.8865 C63.5673,32.3375 60.8763,31.4525 56.7833,31.4525 L48.6713,31.4525 L48.6713,57.2625 L56.7833,57.2625 C60.8763,57.2625 63.5673,56.3775 65.6693,54.8285 C68.8403,52.4695 70.7943,48.6345 70.7943,44.3575" id="Fill-20" fill="#b89d7f"></path>
                        <path d="M102.9457,39.7586 L106.0727,47.0316 L99.8177,47.0316 L102.9457,39.7586 Z M97.8777,51.5966 L108.0507,51.5966 L110.4657,57.2716 L115.8147,57.2716 L104.7817,31.5266 L104.7597,31.4736 L101.1677,31.4736 L90.1127,57.2716 L95.4617,57.2716 L97.8777,51.5966 Z" id="Fill-22" fill="#b89d7f"></path>
                        <path d="M107.0131,84.4739 L101.8221,84.4739 C97.3771,84.4739 96.5341,81.4239 96.5341,75.7959 C96.5341,69.6619 97.7821,67.2869 102.2311,67.2869 C105.6481,67.2869 107.1651,68.5499 107.1651,78.3579 C107.1651,80.7759 107.1141,82.4759 107.0131,84.4739 Z M134.1091,89.3669 L139.0191,88.9479 L138.9971,31.4739 L134.1091,31.4739 L134.1091,44.0059 L123.4111,31.4739 L118.5951,31.4739 L118.5951,84.4779 L112.2931,84.4749 C112.3951,82.5009 112.4441,80.4119 112.4441,78.0919 C112.4441,71.7999 111.8771,68.2449 110.4861,65.8219 C108.9061,63.0689 106.2341,61.8409 101.8221,61.8409 C92.4151,61.8409 91.1461,68.8949 91.1461,75.7959 C91.1461,87.6059 97.8351,89.3699 101.8221,89.3699 L106.5801,89.3699 C105.6811,95.1719 103.5061,97.5399 99.0881,97.5399 C97.9991,97.5399 96.6341,97.2139 95.5251,96.6879 L95.1911,96.5299 L95.1911,101.4669 L95.3111,101.5319 C95.3251,101.5399 96.8271,102.3819 99.9091,102.3819 C106.9701,102.3819 110.5331,98.4899 111.8131,89.3699 L123.4111,89.3669 L123.4111,39.0649 L134.1091,51.5969 L134.1091,69.7829 L134.1091,89.3669 Z" id="Fill-24" fill="#b89d7f"></path>
                    </g>
                </g>
            </g>
        </g>
    </g>
</svg>