<svg xmlns="http://www.w3.org/2000/svg" viewBox="0 0 25.22 9.03"><defs><style>.cls-1{fill:#fff;}</style></defs><title>top-text</title><g id="Layer_2" data-name="Layer 2"><g id="Layer_1-2" data-name="Layer 1"><path class="cls-1" d="M9.42,4.5l-2,0q-1.86.1-1.86.49,0,.15,1,.45a3.47,3.47,0,0,0,1.12.24L7.38,7.27q-.05.26-1.33.94a6.34,6.34,0,0,1-3,.82A3.73,3.73,0,0,1,1,8.45,2,2,0,0,1,0,6.71,5.08,5.08,0,0,1,.6,4.53q.53-1.09.68-1.05l0,0L.87,4.72A4.17,4.17,0,0,0,.65,5.94q0,1.64,2.29,1.64a10.62,10.62,0,0,0,1.74-.22q1.38-.26,1.38-.52,0-.1-.74-.37t-.75-.4a1.83,1.83,0,0,1,0-.3q0-2.45,3.66-2.45H9.42Z"/><path class="cls-1" d="M12.61,3.43q0,1.07-.32,1.07h-4V3.32h3.36q.1,0,.1-.17a2.21,2.21,0,0,0-.27-.8q-.3-.59-.48-.58L11.54.49q.39.16.75,1.34A5.8,5.8,0,0,1,12.61,3.43Zm-1,3.81-.62,1L9.53,7.49l.56-1Z"/><path class="cls-1" d="M19.65,4.5h-1.1a3.15,3.15,0,0,1-1.13,2.25,3.39,3.39,0,0,1-2.35,1.09,2.46,2.46,0,0,1-1.56-.55A8.19,8.19,0,0,1,12.36,6.1a2,2,0,0,0,1,.45,5,5,0,0,0,1.15.17,3.69,3.69,0,0,0,3.33-2.15.63.63,0,0,0,.09-.31q0-.83-1.33-1.71l.57-1.16a3.35,3.35,0,0,1,1.3,1.94h1.19Z"/><path class="cls-1" d="M25.22,3.17l-.5,1.15-2.52.18H18.48V3.32h1.68a2.2,2.2,0,0,1-.59-1.19q0-.74,1.49-1.84A1.54,1.54,0,0,1,22,0a1.75,1.75,0,0,1,1.29.55,2.24,2.24,0,0,1,.62,1.23,1.67,1.67,0,0,0-.75-.41,3,3,0,0,0-.88-.15,1.61,1.61,0,0,0-1.56.89v0q0,.25.59.73a1.6,1.6,0,0,0,.9.47Z"/></g></g></svg>